<mxfile host="65bd71144e">
    <diagram id="wWUWmePfFoA0XAe7wffy" name="Template">
        <mxGraphModel dx="84" dy="225" grid="1" gridSize="10" guides="1" tooltips="1" connect="1" arrows="1" fold="1" page="0" pageScale="1" pageWidth="850" pageHeight="1100" math="0" shadow="0">
            <root>
                <mxCell id="0"/>
                <mxCell id="1" parent="0"/>
                <mxCell id="12" value="&lt;font&gt;START&lt;/font&gt;" style="rounded=1;whiteSpace=wrap;html=1;fillColor=#82B366;strokeColor=#82b366;fontFamily=Lucida Console;fontColor=#FFFFFF;" parent="1" vertex="1">
                    <mxGeometry x="1010" y="570" width="120" height="40" as="geometry"/>
                </mxCell>
                <mxCell id="14" value="&lt;font&gt;MORE OF&lt;/font&gt;" style="rounded=1;whiteSpace=wrap;html=1;fillColor=#6C8EBF;strokeColor=#6c8ebf;fontFamily=Lucida Console;fontColor=#FFFFFF;" parent="1" vertex="1">
                    <mxGeometry x="1150" y="570" width="120" height="40" as="geometry"/>
                </mxCell>
                <mxCell id="15" value="&lt;font&gt;CONTINUE&lt;/font&gt;" style="rounded=1;whiteSpace=wrap;html=1;fillColor=#D6B656;strokeColor=#D6B656;fontFamily=Lucida Console;fontColor=#FFFFFF;" parent="1" vertex="1">
                    <mxGeometry x="1290" y="570" width="120" height="40" as="geometry"/>
                </mxCell>
                <mxCell id="16" value="&lt;font&gt;LESS OF&lt;/font&gt;" style="rounded=1;whiteSpace=wrap;html=1;fillColor=#D79B00;strokeColor=#d79b00;fontFamily=Lucida Console;fontColor=#FFFFFF;" parent="1" vertex="1">
                    <mxGeometry x="1430" y="570" width="120" height="40" as="geometry"/>
                </mxCell>
                <mxCell id="17" value="&lt;font&gt;STOP&lt;/font&gt;" style="rounded=1;whiteSpace=wrap;html=1;fillColor=#B85450;strokeColor=#b85450;fontFamily=Lucida Console;fontColor=#FFFFFF;" parent="1" vertex="1">
                    <mxGeometry x="1570" y="570" width="120" height="40" as="geometry"/>
                </mxCell>
                <mxCell id="18" value="" style="endArrow=none;html=1;fontFamily=Lucida Console;fontColor=#FFFFFF;strokeWidth=3;fillColor=#dae8fc;strokeColor=#6c8ebf;" parent="1" edge="1">
                    <mxGeometry width="50" height="50" relative="1" as="geometry">
                        <mxPoint x="1140" y="1120" as="sourcePoint"/>
                        <mxPoint x="1140" y="560" as="targetPoint"/>
                    </mxGeometry>
                </mxCell>
                <mxCell id="19" value="" style="endArrow=none;html=1;fontFamily=Lucida Console;fontColor=#FFFFFF;strokeWidth=3;fillColor=#d5e8d4;strokeColor=#82b366;" parent="1" edge="1">
                    <mxGeometry width="50" height="50" relative="1" as="geometry">
                        <mxPoint x="1000" y="1120" as="sourcePoint"/>
                        <mxPoint x="1000" y="560.0000000000001" as="targetPoint"/>
                    </mxGeometry>
                </mxCell>
                <mxCell id="20" value="" style="endArrow=none;html=1;fontFamily=Lucida Console;fontColor=#FFFFFF;strokeWidth=3;fillColor=#fff2cc;strokeColor=#d6b656;" parent="1" edge="1">
                    <mxGeometry width="50" height="50" relative="1" as="geometry">
                        <mxPoint x="1280" y="1120" as="sourcePoint"/>
                        <mxPoint x="1280" y="560.0000000000001" as="targetPoint"/>
                    </mxGeometry>
                </mxCell>
                <mxCell id="21" value="" style="endArrow=none;html=1;fontFamily=Lucida Console;fontColor=#FFFFFF;strokeWidth=3;fillColor=#fff2cc;strokeColor=#d6b656;" parent="1" edge="1">
                    <mxGeometry width="50" height="50" relative="1" as="geometry">
                        <mxPoint x="1420" y="1120" as="sourcePoint"/>
                        <mxPoint x="1420" y="560.0000000000001" as="targetPoint"/>
                    </mxGeometry>
                </mxCell>
                <mxCell id="22" value="" style="endArrow=none;html=1;fontFamily=Lucida Console;fontColor=#FFFFFF;strokeWidth=3;fillColor=#ffe6cc;strokeColor=#d79b00;" parent="1" edge="1">
                    <mxGeometry width="50" height="50" relative="1" as="geometry">
                        <mxPoint x="1560" y="1120" as="sourcePoint"/>
                        <mxPoint x="1560" y="560.0000000000001" as="targetPoint"/>
                    </mxGeometry>
                </mxCell>
                <mxCell id="23" value="" style="endArrow=none;html=1;fontFamily=Lucida Console;fontColor=#FFFFFF;strokeWidth=3;fillColor=#f8cecc;strokeColor=#b85450;" parent="1" edge="1">
                    <mxGeometry width="50" height="50" relative="1" as="geometry">
                        <mxPoint x="1700" y="1120" as="sourcePoint"/>
                        <mxPoint x="1700" y="560.0000000000001" as="targetPoint"/>
                    </mxGeometry>
                </mxCell>
                <mxCell id="24" value="" style="endArrow=none;html=1;fontFamily=Lucida Console;fontColor=#FFFFFF;strokeWidth=3;fillColor=#d5e8d4;strokeColor=#82b366;" parent="1" edge="1">
                    <mxGeometry width="50" height="50" relative="1" as="geometry">
                        <mxPoint x="1000" y="620" as="sourcePoint"/>
                        <mxPoint x="1120" y="620" as="targetPoint"/>
                    </mxGeometry>
                </mxCell>
                <mxCell id="25" value="" style="endArrow=none;html=1;fontFamily=Lucida Console;fontColor=#FFFFFF;strokeWidth=3;fillColor=#dae8fc;strokeColor=#6c8ebf;" parent="1" edge="1">
                    <mxGeometry width="50" height="50" relative="1" as="geometry">
                        <mxPoint x="1120" y="619.9999999999999" as="sourcePoint"/>
                        <mxPoint x="1260" y="620" as="targetPoint"/>
                    </mxGeometry>
                </mxCell>
                <mxCell id="26" value="" style="endArrow=none;html=1;fontFamily=Lucida Console;fontColor=#FFFFFF;strokeWidth=3;fillColor=#fff2cc;strokeColor=#d6b656;" parent="1" edge="1">
                    <mxGeometry width="50" height="50" relative="1" as="geometry">
                        <mxPoint x="1260" y="620" as="sourcePoint"/>
                        <mxPoint x="1440" y="620" as="targetPoint"/>
                    </mxGeometry>
                </mxCell>
                <mxCell id="28" value="" style="endArrow=none;html=1;fontFamily=Lucida Console;fontColor=#FFFFFF;strokeWidth=3;fillColor=#ffe6cc;strokeColor=#d79b00;" parent="1" edge="1">
                    <mxGeometry width="50" height="50" relative="1" as="geometry">
                        <mxPoint x="1440" y="620" as="sourcePoint"/>
                        <mxPoint x="1580" y="620" as="targetPoint"/>
                    </mxGeometry>
                </mxCell>
                <mxCell id="29" value="" style="endArrow=none;html=1;fontFamily=Lucida Console;fontColor=#FFFFFF;strokeWidth=3;fillColor=#f8cecc;strokeColor=#b85450;" parent="1" edge="1">
                    <mxGeometry width="50" height="50" relative="1" as="geometry">
                        <mxPoint x="1580" y="620" as="sourcePoint"/>
                        <mxPoint x="1700" y="620" as="targetPoint"/>
                    </mxGeometry>
                </mxCell>
                <mxCell id="30" value="" style="rounded=1;whiteSpace=wrap;html=1;fillColor=#B85450;strokeColor=#b85450;fontFamily=Lucida Console;fontColor=#FFFFFF;fontSize=8;" parent="1" vertex="1">
                    <mxGeometry x="1570" y="629" width="120" height="40" as="geometry"/>
                </mxCell>
                <mxCell id="32" value="" style="rounded=1;whiteSpace=wrap;html=1;fillColor=#82B366;strokeColor=#82b366;fontFamily=Lucida Console;fontColor=#FFFFFF;fontSize=8;" parent="1" vertex="1">
                    <mxGeometry x="1010" y="629" width="120" height="40" as="geometry"/>
                </mxCell>
                <mxCell id="34" value="" style="rounded=1;whiteSpace=wrap;html=1;fillColor=#6C8EBF;strokeColor=#6c8ebf;fontFamily=Lucida Console;fontColor=#FFFFFF;fontSize=8;" parent="1" vertex="1">
                    <mxGeometry x="1150" y="629" width="120" height="40" as="geometry"/>
                </mxCell>
                <mxCell id="36" value="" style="rounded=1;whiteSpace=wrap;html=1;fillColor=#D6B656;strokeColor=#D6B656;fontFamily=Lucida Console;fontColor=#FFFFFF;fontSize=8;" parent="1" vertex="1">
                    <mxGeometry x="1290" y="629" width="120" height="40" as="geometry"/>
                </mxCell>
                <mxCell id="Rl7lYWSojBfeo6gSZybb-39" value="" style="rounded=1;whiteSpace=wrap;html=1;fillColor=#D79B00;strokeColor=#d79b00;fontFamily=Lucida Console;fontColor=#FFFFFF;fontSize=8;" parent="1" vertex="1">
                    <mxGeometry x="1430" y="629" width="120" height="40" as="geometry"/>
                </mxCell>
            </root>
        </mxGraphModel>
    </diagram>
    <diagram id="yWCnnc2i1-aje3GzUXzS" name="Sprint 1">
        <mxGraphModel dx="254" dy="225" grid="0" gridSize="10" guides="1" tooltips="1" connect="1" arrows="1" fold="1" page="0" pageScale="1" pageWidth="850" pageHeight="1100" math="0" shadow="0">
            <root>
                <mxCell id="vssPZaKW5R-4xnwFRvQl-0"/>
                <mxCell id="vssPZaKW5R-4xnwFRvQl-1" parent="vssPZaKW5R-4xnwFRvQl-0"/>
                <mxCell id="qor0M5BSsGP-4J8cAUOK-0" value="&lt;font&gt;START&lt;/font&gt;" style="rounded=1;whiteSpace=wrap;html=1;fillColor=#82B366;strokeColor=#82b366;fontFamily=Lucida Console;fontColor=#FFFFFF;" parent="vssPZaKW5R-4xnwFRvQl-1" vertex="1">
                    <mxGeometry x="1010" y="570" width="120" height="40" as="geometry"/>
                </mxCell>
                <mxCell id="qor0M5BSsGP-4J8cAUOK-1" value="&lt;font&gt;MORE OF&lt;/font&gt;" style="rounded=1;whiteSpace=wrap;html=1;fillColor=#6C8EBF;strokeColor=#6c8ebf;fontFamily=Lucida Console;fontColor=#FFFFFF;" parent="vssPZaKW5R-4xnwFRvQl-1" vertex="1">
                    <mxGeometry x="1150" y="570" width="120" height="40" as="geometry"/>
                </mxCell>
                <mxCell id="qor0M5BSsGP-4J8cAUOK-2" value="&lt;font&gt;CONTINUE&lt;/font&gt;" style="rounded=1;whiteSpace=wrap;html=1;fillColor=#FFCB6B;strokeColor=#FFCB6B;fontFamily=Lucida Console;fontColor=#FFFFFF;" parent="vssPZaKW5R-4xnwFRvQl-1" vertex="1">
                    <mxGeometry x="1290" y="570" width="120" height="40" as="geometry"/>
                </mxCell>
                <mxCell id="qor0M5BSsGP-4J8cAUOK-3" value="&lt;font&gt;LESS OF&lt;/font&gt;" style="rounded=1;whiteSpace=wrap;html=1;fillColor=#D79B00;strokeColor=#d79b00;fontFamily=Lucida Console;fontColor=#FFFFFF;" parent="vssPZaKW5R-4xnwFRvQl-1" vertex="1">
                    <mxGeometry x="1430" y="570" width="120" height="40" as="geometry"/>
                </mxCell>
                <mxCell id="qor0M5BSsGP-4J8cAUOK-4" value="&lt;font&gt;STOP&lt;/font&gt;" style="rounded=1;whiteSpace=wrap;html=1;fillColor=#B85450;strokeColor=#b85450;fontFamily=Lucida Console;fontColor=#FFFFFF;" parent="vssPZaKW5R-4xnwFRvQl-1" vertex="1">
                    <mxGeometry x="1570" y="570" width="120" height="40" as="geometry"/>
                </mxCell>
                <mxCell id="qor0M5BSsGP-4J8cAUOK-5" value="" style="endArrow=none;html=1;fontFamily=Lucida Console;fontColor=#FFFFFF;strokeWidth=3;fillColor=#dae8fc;strokeColor=#6c8ebf;" parent="vssPZaKW5R-4xnwFRvQl-1" edge="1">
                    <mxGeometry width="50" height="50" relative="1" as="geometry">
                        <mxPoint x="1140" y="1120" as="sourcePoint"/>
                        <mxPoint x="1140" y="560" as="targetPoint"/>
                    </mxGeometry>
                </mxCell>
                <mxCell id="qor0M5BSsGP-4J8cAUOK-6" value="" style="endArrow=none;html=1;fontFamily=Lucida Console;fontColor=#FFFFFF;strokeWidth=3;fillColor=#d5e8d4;strokeColor=#82b366;" parent="vssPZaKW5R-4xnwFRvQl-1" edge="1">
                    <mxGeometry width="50" height="50" relative="1" as="geometry">
                        <mxPoint x="1000" y="1120" as="sourcePoint"/>
                        <mxPoint x="1000" y="560.0000000000002" as="targetPoint"/>
                    </mxGeometry>
                </mxCell>
                <mxCell id="qor0M5BSsGP-4J8cAUOK-7" value="" style="endArrow=none;html=1;fontFamily=Lucida Console;fontColor=#FFFFFF;strokeWidth=3;fillColor=#fff2cc;strokeColor=#d6b656;" parent="vssPZaKW5R-4xnwFRvQl-1" edge="1">
                    <mxGeometry width="50" height="50" relative="1" as="geometry">
                        <mxPoint x="1280" y="1120" as="sourcePoint"/>
                        <mxPoint x="1280" y="560.0000000000002" as="targetPoint"/>
                    </mxGeometry>
                </mxCell>
                <mxCell id="qor0M5BSsGP-4J8cAUOK-8" value="" style="endArrow=none;html=1;fontFamily=Lucida Console;fontColor=#FFFFFF;strokeWidth=3;fillColor=#fff2cc;strokeColor=#d6b656;" parent="vssPZaKW5R-4xnwFRvQl-1" edge="1">
                    <mxGeometry width="50" height="50" relative="1" as="geometry">
                        <mxPoint x="1420" y="1120" as="sourcePoint"/>
                        <mxPoint x="1420" y="560.0000000000002" as="targetPoint"/>
                    </mxGeometry>
                </mxCell>
                <mxCell id="qor0M5BSsGP-4J8cAUOK-9" value="" style="endArrow=none;html=1;fontFamily=Lucida Console;fontColor=#FFFFFF;strokeWidth=3;fillColor=#ffe6cc;strokeColor=#d79b00;" parent="vssPZaKW5R-4xnwFRvQl-1" edge="1">
                    <mxGeometry width="50" height="50" relative="1" as="geometry">
                        <mxPoint x="1560" y="1120" as="sourcePoint"/>
                        <mxPoint x="1560" y="560.0000000000002" as="targetPoint"/>
                    </mxGeometry>
                </mxCell>
                <mxCell id="qor0M5BSsGP-4J8cAUOK-10" value="" style="endArrow=none;html=1;fontFamily=Lucida Console;fontColor=#FFFFFF;strokeWidth=3;fillColor=#f8cecc;strokeColor=#b85450;" parent="vssPZaKW5R-4xnwFRvQl-1" edge="1">
                    <mxGeometry width="50" height="50" relative="1" as="geometry">
                        <mxPoint x="1700" y="1120" as="sourcePoint"/>
                        <mxPoint x="1700" y="560.0000000000002" as="targetPoint"/>
                    </mxGeometry>
                </mxCell>
                <mxCell id="qor0M5BSsGP-4J8cAUOK-11" value="" style="endArrow=none;html=1;fontFamily=Lucida Console;fontColor=#FFFFFF;strokeWidth=3;fillColor=#d5e8d4;strokeColor=#82b366;" parent="vssPZaKW5R-4xnwFRvQl-1" edge="1">
                    <mxGeometry width="50" height="50" relative="1" as="geometry">
                        <mxPoint x="1000" y="620" as="sourcePoint"/>
                        <mxPoint x="1120" y="620" as="targetPoint"/>
                    </mxGeometry>
                </mxCell>
                <mxCell id="qor0M5BSsGP-4J8cAUOK-12" value="" style="endArrow=none;html=1;fontFamily=Lucida Console;fontColor=#FFFFFF;strokeWidth=3;fillColor=#dae8fc;strokeColor=#6c8ebf;" parent="vssPZaKW5R-4xnwFRvQl-1" edge="1">
                    <mxGeometry width="50" height="50" relative="1" as="geometry">
                        <mxPoint x="1120" y="619.9999999999998" as="sourcePoint"/>
                        <mxPoint x="1260" y="620" as="targetPoint"/>
                    </mxGeometry>
                </mxCell>
                <mxCell id="qor0M5BSsGP-4J8cAUOK-13" value="" style="endArrow=none;html=1;fontFamily=Lucida Console;fontColor=#FFFFFF;strokeWidth=3;fillColor=#fff2cc;strokeColor=#d6b656;" parent="vssPZaKW5R-4xnwFRvQl-1" edge="1">
                    <mxGeometry width="50" height="50" relative="1" as="geometry">
                        <mxPoint x="1260" y="620" as="sourcePoint"/>
                        <mxPoint x="1440" y="620" as="targetPoint"/>
                    </mxGeometry>
                </mxCell>
                <mxCell id="qor0M5BSsGP-4J8cAUOK-14" value="" style="endArrow=none;html=1;fontFamily=Lucida Console;fontColor=#FFFFFF;strokeWidth=3;fillColor=#ffe6cc;strokeColor=#d79b00;" parent="vssPZaKW5R-4xnwFRvQl-1" edge="1">
                    <mxGeometry width="50" height="50" relative="1" as="geometry">
                        <mxPoint x="1440" y="620" as="sourcePoint"/>
                        <mxPoint x="1580" y="620" as="targetPoint"/>
                    </mxGeometry>
                </mxCell>
                <mxCell id="qor0M5BSsGP-4J8cAUOK-15" value="" style="endArrow=none;html=1;fontFamily=Lucida Console;fontColor=#FFFFFF;strokeWidth=3;fillColor=#f8cecc;strokeColor=#b85450;" parent="vssPZaKW5R-4xnwFRvQl-1" edge="1">
                    <mxGeometry width="50" height="50" relative="1" as="geometry">
                        <mxPoint x="1580" y="620" as="sourcePoint"/>
                        <mxPoint x="1700" y="620" as="targetPoint"/>
                    </mxGeometry>
                </mxCell>
                <mxCell id="qor0M5BSsGP-4J8cAUOK-16" value="&lt;font style=&quot;font-size: 8px;&quot;&gt;Justin die Corona heeft&lt;/font&gt;" style="rounded=1;whiteSpace=wrap;html=1;fillColor=#B85450;strokeColor=#b85450;fontFamily=Lucida Console;fontColor=#FFFFFF;fontSize=8;" parent="vssPZaKW5R-4xnwFRvQl-1" vertex="1">
                    <mxGeometry x="1570" y="629" width="120" height="40" as="geometry"/>
                </mxCell>
                <mxCell id="qor0M5BSsGP-4J8cAUOK-17" value="&lt;font style=&quot;font-size: 8px&quot;&gt;Structuur in de meetings i.p.v. freestylen&lt;/font&gt;" style="rounded=1;whiteSpace=wrap;html=1;fillColor=#82B366;strokeColor=#82b366;fontFamily=Lucida Console;fontColor=#FFFFFF;fontSize=8;" parent="vssPZaKW5R-4xnwFRvQl-1" vertex="1">
                    <mxGeometry x="1010" y="629" width="120" height="40" as="geometry"/>
                </mxCell>
                <mxCell id="qor0M5BSsGP-4J8cAUOK-18" value="&lt;font style=&quot;font-size: 8px&quot;&gt;Werkdruk inschatten en verdelen&lt;/font&gt;" style="rounded=1;whiteSpace=wrap;html=1;fillColor=#82B366;strokeColor=#82b366;fontFamily=Lucida Console;fontColor=#FFFFFF;fontSize=8;" parent="vssPZaKW5R-4xnwFRvQl-1" vertex="1">
                    <mxGeometry x="1010" y="680" width="120" height="40" as="geometry"/>
                </mxCell>
                <mxCell id="qor0M5BSsGP-4J8cAUOK-19" value="&lt;font style=&quot;font-size: 8px&quot;&gt;Feedback geven op andere teamgenoten&lt;/font&gt;" style="rounded=1;whiteSpace=wrap;html=1;fillColor=#6C8EBF;strokeColor=#6c8ebf;fontFamily=Lucida Console;fontColor=#FFFFFF;fontSize=8;" parent="vssPZaKW5R-4xnwFRvQl-1" vertex="1">
                    <mxGeometry x="1150" y="629" width="120" height="40" as="geometry"/>
                </mxCell>
                <mxCell id="qor0M5BSsGP-4J8cAUOK-20" value="&lt;font style=&quot;font-size: 8px&quot;&gt;100% Aanwezig zijn&lt;/font&gt;" style="rounded=1;whiteSpace=wrap;html=1;fillColor=#FFCB6B;strokeColor=#FFCB6B;fontFamily=Lucida Console;fontSize=8;fontColor=#FFFFFF;" parent="vssPZaKW5R-4xnwFRvQl-1" vertex="1">
                    <mxGeometry x="1290" y="629" width="120" height="40" as="geometry"/>
                </mxCell>
                <mxCell id="qor0M5BSsGP-4J8cAUOK-21" value="&lt;font style=&quot;font-size: 8px&quot;&gt;Starfish gebruiken voor reflectie&lt;/font&gt;" style="rounded=1;whiteSpace=wrap;html=1;fillColor=#FFCB6B;strokeColor=#FFCB6B;fontFamily=Lucida Console;fontSize=8;fontColor=#FFFFFF;" parent="vssPZaKW5R-4xnwFRvQl-1" vertex="1">
                    <mxGeometry x="1290" y="680" width="120" height="40" as="geometry"/>
                </mxCell>
                <mxCell id="qor0M5BSsGP-4J8cAUOK-22" value="&lt;font style=&quot;font-size: 8px&quot;&gt;Werken in groepjes&lt;/font&gt;" style="rounded=1;whiteSpace=wrap;html=1;fillColor=#FFCB6B;strokeColor=#FFCB6B;fontFamily=Lucida Console;fontSize=8;fontColor=#FFFFFF;" parent="vssPZaKW5R-4xnwFRvQl-1" vertex="1">
                    <mxGeometry x="1290" y="730" width="120" height="40" as="geometry"/>
                </mxCell>
            </root>
        </mxGraphModel>
    </diagram>
    <diagram id="S4HSxz_8kP7M90M4Im0g" name="Sprint 2">
        <mxGraphModel dx="-198" dy="-43" grid="1" gridSize="10" guides="1" tooltips="1" connect="1" arrows="1" fold="1" page="0" pageScale="1" pageWidth="850" pageHeight="1100" math="0" shadow="0">
            <root>
                <mxCell id="FXCIzy_UqznlageWIFzq-0"/>
                <mxCell id="FXCIzy_UqznlageWIFzq-1" parent="FXCIzy_UqznlageWIFzq-0"/>
                <mxCell id="FXCIzy_UqznlageWIFzq-2" value="&lt;font&gt;START&lt;/font&gt;" style="rounded=1;whiteSpace=wrap;html=1;fillColor=#82B366;strokeColor=#82b366;fontFamily=Lucida Console;fontColor=#FFFFFF;" parent="FXCIzy_UqznlageWIFzq-1" vertex="1">
                    <mxGeometry x="1010" y="570" width="120" height="40" as="geometry"/>
                </mxCell>
                <mxCell id="FXCIzy_UqznlageWIFzq-3" value="&lt;font&gt;MORE OF&lt;/font&gt;" style="rounded=1;whiteSpace=wrap;html=1;fillColor=#6C8EBF;strokeColor=#6c8ebf;fontFamily=Lucida Console;fontColor=#FFFFFF;" parent="FXCIzy_UqznlageWIFzq-1" vertex="1">
                    <mxGeometry x="1150" y="570" width="120" height="40" as="geometry"/>
                </mxCell>
                <mxCell id="FXCIzy_UqznlageWIFzq-4" value="&lt;font&gt;CONTINUE&lt;/font&gt;" style="rounded=1;whiteSpace=wrap;html=1;fillColor=#D6B656;strokeColor=#D6B656;fontFamily=Lucida Console;fontColor=#FFFFFF;" parent="FXCIzy_UqznlageWIFzq-1" vertex="1">
                    <mxGeometry x="1290" y="570" width="120" height="40" as="geometry"/>
                </mxCell>
                <mxCell id="FXCIzy_UqznlageWIFzq-5" value="&lt;font&gt;LESS OF&lt;/font&gt;" style="rounded=1;whiteSpace=wrap;html=1;fillColor=#D79B00;strokeColor=#d79b00;fontFamily=Lucida Console;fontColor=#FFFFFF;" parent="FXCIzy_UqznlageWIFzq-1" vertex="1">
                    <mxGeometry x="1430" y="570" width="120" height="40" as="geometry"/>
                </mxCell>
                <mxCell id="FXCIzy_UqznlageWIFzq-6" value="&lt;font&gt;STOP&lt;/font&gt;" style="rounded=1;whiteSpace=wrap;html=1;fillColor=#B85450;strokeColor=#b85450;fontFamily=Lucida Console;fontColor=#FFFFFF;" parent="FXCIzy_UqznlageWIFzq-1" vertex="1">
                    <mxGeometry x="1570" y="570" width="120" height="40" as="geometry"/>
                </mxCell>
                <mxCell id="FXCIzy_UqznlageWIFzq-7" value="" style="endArrow=none;html=1;fontFamily=Lucida Console;fontColor=#FFFFFF;strokeWidth=3;fillColor=#dae8fc;strokeColor=#6c8ebf;" parent="FXCIzy_UqznlageWIFzq-1" edge="1">
                    <mxGeometry width="50" height="50" relative="1" as="geometry">
                        <mxPoint x="1140" y="1120" as="sourcePoint"/>
                        <mxPoint x="1140" y="560" as="targetPoint"/>
                    </mxGeometry>
                </mxCell>
                <mxCell id="FXCIzy_UqznlageWIFzq-8" value="" style="endArrow=none;html=1;fontFamily=Lucida Console;fontColor=#FFFFFF;strokeWidth=3;fillColor=#d5e8d4;strokeColor=#82b366;" parent="FXCIzy_UqznlageWIFzq-1" edge="1">
                    <mxGeometry width="50" height="50" relative="1" as="geometry">
                        <mxPoint x="1000" y="1120" as="sourcePoint"/>
                        <mxPoint x="1000" y="560.0000000000001" as="targetPoint"/>
                    </mxGeometry>
                </mxCell>
                <mxCell id="FXCIzy_UqznlageWIFzq-9" value="" style="endArrow=none;html=1;fontFamily=Lucida Console;fontColor=#FFFFFF;strokeWidth=3;fillColor=#fff2cc;strokeColor=#d6b656;" parent="FXCIzy_UqznlageWIFzq-1" edge="1">
                    <mxGeometry width="50" height="50" relative="1" as="geometry">
                        <mxPoint x="1280" y="1120" as="sourcePoint"/>
                        <mxPoint x="1280" y="560.0000000000001" as="targetPoint"/>
                    </mxGeometry>
                </mxCell>
                <mxCell id="FXCIzy_UqznlageWIFzq-10" value="" style="endArrow=none;html=1;fontFamily=Lucida Console;fontColor=#FFFFFF;strokeWidth=3;fillColor=#fff2cc;strokeColor=#d6b656;" parent="FXCIzy_UqznlageWIFzq-1" edge="1">
                    <mxGeometry width="50" height="50" relative="1" as="geometry">
                        <mxPoint x="1420" y="1120" as="sourcePoint"/>
                        <mxPoint x="1420" y="560.0000000000001" as="targetPoint"/>
                    </mxGeometry>
                </mxCell>
                <mxCell id="FXCIzy_UqznlageWIFzq-11" value="" style="endArrow=none;html=1;fontFamily=Lucida Console;fontColor=#FFFFFF;strokeWidth=3;fillColor=#ffe6cc;strokeColor=#d79b00;" parent="FXCIzy_UqznlageWIFzq-1" edge="1">
                    <mxGeometry width="50" height="50" relative="1" as="geometry">
                        <mxPoint x="1560" y="1120" as="sourcePoint"/>
                        <mxPoint x="1560" y="560.0000000000001" as="targetPoint"/>
                    </mxGeometry>
                </mxCell>
                <mxCell id="FXCIzy_UqznlageWIFzq-12" value="" style="endArrow=none;html=1;fontFamily=Lucida Console;fontColor=#FFFFFF;strokeWidth=3;fillColor=#f8cecc;strokeColor=#b85450;" parent="FXCIzy_UqznlageWIFzq-1" edge="1">
                    <mxGeometry width="50" height="50" relative="1" as="geometry">
                        <mxPoint x="1700" y="1120" as="sourcePoint"/>
                        <mxPoint x="1700" y="560.0000000000001" as="targetPoint"/>
                    </mxGeometry>
                </mxCell>
                <mxCell id="FXCIzy_UqznlageWIFzq-13" value="" style="endArrow=none;html=1;fontFamily=Lucida Console;fontColor=#FFFFFF;strokeWidth=3;fillColor=#d5e8d4;strokeColor=#82b366;" parent="FXCIzy_UqznlageWIFzq-1" edge="1">
                    <mxGeometry width="50" height="50" relative="1" as="geometry">
                        <mxPoint x="1000" y="620" as="sourcePoint"/>
                        <mxPoint x="1120" y="620" as="targetPoint"/>
                    </mxGeometry>
                </mxCell>
                <mxCell id="FXCIzy_UqznlageWIFzq-14" value="" style="endArrow=none;html=1;fontFamily=Lucida Console;fontColor=#FFFFFF;strokeWidth=3;fillColor=#dae8fc;strokeColor=#6c8ebf;" parent="FXCIzy_UqznlageWIFzq-1" edge="1">
                    <mxGeometry width="50" height="50" relative="1" as="geometry">
                        <mxPoint x="1120" y="619.9999999999999" as="sourcePoint"/>
                        <mxPoint x="1260" y="620" as="targetPoint"/>
                    </mxGeometry>
                </mxCell>
                <mxCell id="FXCIzy_UqznlageWIFzq-15" value="" style="endArrow=none;html=1;fontFamily=Lucida Console;fontColor=#FFFFFF;strokeWidth=3;fillColor=#fff2cc;strokeColor=#d6b656;" parent="FXCIzy_UqznlageWIFzq-1" edge="1">
                    <mxGeometry width="50" height="50" relative="1" as="geometry">
                        <mxPoint x="1260" y="620" as="sourcePoint"/>
                        <mxPoint x="1440" y="620" as="targetPoint"/>
                    </mxGeometry>
                </mxCell>
                <mxCell id="FXCIzy_UqznlageWIFzq-16" value="" style="endArrow=none;html=1;fontFamily=Lucida Console;fontColor=#FFFFFF;strokeWidth=3;fillColor=#ffe6cc;strokeColor=#d79b00;" parent="FXCIzy_UqznlageWIFzq-1" edge="1">
                    <mxGeometry width="50" height="50" relative="1" as="geometry">
                        <mxPoint x="1440" y="620" as="sourcePoint"/>
                        <mxPoint x="1580" y="620" as="targetPoint"/>
                    </mxGeometry>
                </mxCell>
                <mxCell id="FXCIzy_UqznlageWIFzq-17" value="" style="endArrow=none;html=1;fontFamily=Lucida Console;fontColor=#FFFFFF;strokeWidth=3;fillColor=#f8cecc;strokeColor=#b85450;" parent="FXCIzy_UqznlageWIFzq-1" edge="1">
                    <mxGeometry width="50" height="50" relative="1" as="geometry">
                        <mxPoint x="1580" y="620" as="sourcePoint"/>
                        <mxPoint x="1700" y="620" as="targetPoint"/>
                    </mxGeometry>
                </mxCell>
                <mxCell id="FXCIzy_UqznlageWIFzq-18" value="Dingen op het laatste moment te doen" style="rounded=1;whiteSpace=wrap;html=1;fillColor=#B85450;strokeColor=#b85450;fontFamily=Lucida Console;fontColor=#FFFFFF;fontSize=8;" parent="FXCIzy_UqznlageWIFzq-1" vertex="1">
                    <mxGeometry x="1570" y="629" width="120" height="40" as="geometry"/>
                </mxCell>
                <mxCell id="FXCIzy_UqznlageWIFzq-19" value="Feedback meenemen op Trello bord &amp;amp; Toekennen" style="rounded=1;whiteSpace=wrap;html=1;fillColor=#82B366;strokeColor=#82b366;fontFamily=Lucida Console;fontColor=#FFFFFF;fontSize=8;" parent="FXCIzy_UqznlageWIFzq-1" vertex="1">
                    <mxGeometry x="1010" y="629" width="120" height="40" as="geometry"/>
                </mxCell>
                <mxCell id="FXCIzy_UqznlageWIFzq-20" value="Kaarten bijhouden" style="rounded=1;whiteSpace=wrap;html=1;fillColor=#6C8EBF;strokeColor=#6c8ebf;fontFamily=Lucida Console;fontColor=#FFFFFF;fontSize=8;" parent="FXCIzy_UqznlageWIFzq-1" vertex="1">
                    <mxGeometry x="1150" y="629" width="120" height="40" as="geometry"/>
                </mxCell>
                <mxCell id="FXCIzy_UqznlageWIFzq-21" value="Dingen op tijd inleveren" style="rounded=1;whiteSpace=wrap;html=1;fillColor=#D6B656;strokeColor=#D6B656;fontFamily=Lucida Console;fontColor=#FFFFFF;fontSize=8;" parent="FXCIzy_UqznlageWIFzq-1" vertex="1">
                    <mxGeometry x="1290" y="629" width="120" height="40" as="geometry"/>
                </mxCell>
                <mxCell id="FXCIzy_UqznlageWIFzq-22" value="Minder ego strelen" style="rounded=1;whiteSpace=wrap;html=1;fillColor=#D79B00;strokeColor=#d79b00;fontFamily=Lucida Console;fontColor=#FFFFFF;fontSize=8;" parent="FXCIzy_UqznlageWIFzq-1" vertex="1">
                    <mxGeometry x="1430" y="629" width="120" height="40" as="geometry"/>
                </mxCell>
                <mxCell id="FXCIzy_UqznlageWIFzq-23" value="100% Aanwezig zijn" style="rounded=1;whiteSpace=wrap;html=1;fillColor=#6C8EBF;strokeColor=#6c8ebf;fontFamily=Lucida Console;fontColor=#FFFFFF;fontSize=8;" parent="FXCIzy_UqznlageWIFzq-1" vertex="1">
                    <mxGeometry x="1150" y="680" width="120" height="40" as="geometry"/>
                </mxCell>
                <mxCell id="FXCIzy_UqznlageWIFzq-24" value="Kaarten vroeg verdelen" style="rounded=1;whiteSpace=wrap;html=1;fillColor=#6C8EBF;strokeColor=#6c8ebf;fontFamily=Lucida Console;fontColor=#FFFFFF;fontSize=8;" parent="FXCIzy_UqznlageWIFzq-1" vertex="1">
                    <mxGeometry x="1150" y="730" width="120" height="40" as="geometry"/>
                </mxCell>
                <mxCell id="FXCIzy_UqznlageWIFzq-25" value="Process van review in Trello toepassen" style="rounded=1;whiteSpace=wrap;html=1;fillColor=#82B366;strokeColor=#82b366;fontFamily=Lucida Console;fontColor=#FFFFFF;fontSize=8;" parent="FXCIzy_UqznlageWIFzq-1" vertex="1">
                    <mxGeometry x="1010" y="680" width="120" height="40" as="geometry"/>
                </mxCell>
                <mxCell id="FXCIzy_UqznlageWIFzq-27" value="Goeie structuur in de meetings" style="rounded=1;whiteSpace=wrap;html=1;fillColor=#D6B656;strokeColor=#D6B656;fontFamily=Lucida Console;fontColor=#FFFFFF;fontSize=8;" parent="FXCIzy_UqznlageWIFzq-1" vertex="1">
                    <mxGeometry x="1290" y="680" width="120" height="40" as="geometry"/>
                </mxCell>
                <mxCell id="FXCIzy_UqznlageWIFzq-28" value="Goeie samenwerking" style="rounded=1;whiteSpace=wrap;html=1;fillColor=#D6B656;strokeColor=#D6B656;fontFamily=Lucida Console;fontColor=#FFFFFF;fontSize=8;" parent="FXCIzy_UqznlageWIFzq-1" vertex="1">
                    <mxGeometry x="1290" y="730" width="120" height="40" as="geometry"/>
                </mxCell>
                <mxCell id="FXCIzy_UqznlageWIFzq-29" value="Werken goed gestructureerd" style="rounded=1;whiteSpace=wrap;html=1;fillColor=#D6B656;strokeColor=#D6B656;fontFamily=Lucida Console;fontColor=#FFFFFF;fontSize=8;" parent="FXCIzy_UqznlageWIFzq-1" vertex="1">
                    <mxGeometry x="1290" y="780" width="120" height="40" as="geometry"/>
                </mxCell>
                <mxCell id="FXCIzy_UqznlageWIFzq-30" value="Kaarten aan 2 mensen toekennen" style="rounded=1;whiteSpace=wrap;html=1;fillColor=#82B366;strokeColor=#82b366;fontFamily=Lucida Console;fontColor=#FFFFFF;fontSize=8;" parent="FXCIzy_UqznlageWIFzq-1" vertex="1">
                    <mxGeometry x="1010" y="730" width="120" height="40" as="geometry"/>
                </mxCell>
            </root>
        </mxGraphModel>
    </diagram>
    <diagram id="0zSq3LPYsmusoCdQadPD" name="Sprint 3">
        <mxGraphModel dx="-449" dy="-200" grid="1" gridSize="10" guides="1" tooltips="1" connect="1" arrows="1" fold="1" page="0" pageScale="1" pageWidth="850" pageHeight="1100" math="0" shadow="0">
            <root>
                <mxCell id="gkaCvpv3Q66eBZVGyOvY-0"/>
                <mxCell id="gkaCvpv3Q66eBZVGyOvY-1" parent="gkaCvpv3Q66eBZVGyOvY-0"/>
                <mxCell id="CVyYj8CNiSk_8Uwydcsj-0" value="&lt;font&gt;START&lt;/font&gt;" style="rounded=1;whiteSpace=wrap;html=1;fillColor=#82B366;strokeColor=#82b366;fontFamily=Lucida Console;fontColor=#FFFFFF;" parent="gkaCvpv3Q66eBZVGyOvY-1" vertex="1">
                    <mxGeometry x="1010" y="570" width="120" height="40" as="geometry"/>
                </mxCell>
                <mxCell id="CVyYj8CNiSk_8Uwydcsj-1" value="&lt;font&gt;MORE OF&lt;/font&gt;" style="rounded=1;whiteSpace=wrap;html=1;fillColor=#6C8EBF;strokeColor=#6c8ebf;fontFamily=Lucida Console;fontColor=#FFFFFF;" parent="gkaCvpv3Q66eBZVGyOvY-1" vertex="1">
                    <mxGeometry x="1150" y="570" width="120" height="40" as="geometry"/>
                </mxCell>
                <mxCell id="CVyYj8CNiSk_8Uwydcsj-2" value="&lt;font&gt;CONTINUE&lt;/font&gt;" style="rounded=1;whiteSpace=wrap;html=1;fillColor=#D6B656;strokeColor=#D6B656;fontFamily=Lucida Console;fontColor=#FFFFFF;" parent="gkaCvpv3Q66eBZVGyOvY-1" vertex="1">
                    <mxGeometry x="1290" y="570" width="120" height="40" as="geometry"/>
                </mxCell>
                <mxCell id="CVyYj8CNiSk_8Uwydcsj-3" value="&lt;font&gt;LESS OF&lt;/font&gt;" style="rounded=1;whiteSpace=wrap;html=1;fillColor=#D79B00;strokeColor=#d79b00;fontFamily=Lucida Console;fontColor=#FFFFFF;" parent="gkaCvpv3Q66eBZVGyOvY-1" vertex="1">
                    <mxGeometry x="1430" y="570" width="120" height="40" as="geometry"/>
                </mxCell>
                <mxCell id="CVyYj8CNiSk_8Uwydcsj-4" value="&lt;font&gt;STOP&lt;/font&gt;" style="rounded=1;whiteSpace=wrap;html=1;fillColor=#B85450;strokeColor=#b85450;fontFamily=Lucida Console;fontColor=#FFFFFF;" parent="gkaCvpv3Q66eBZVGyOvY-1" vertex="1">
                    <mxGeometry x="1570" y="570" width="120" height="40" as="geometry"/>
                </mxCell>
                <mxCell id="CVyYj8CNiSk_8Uwydcsj-5" value="" style="endArrow=none;html=1;fontFamily=Lucida Console;fontColor=#FFFFFF;strokeWidth=3;fillColor=#dae8fc;strokeColor=#6c8ebf;" parent="gkaCvpv3Q66eBZVGyOvY-1" edge="1">
                    <mxGeometry width="50" height="50" relative="1" as="geometry">
                        <mxPoint x="1140" y="1120" as="sourcePoint"/>
                        <mxPoint x="1140" y="560" as="targetPoint"/>
                    </mxGeometry>
                </mxCell>
                <mxCell id="CVyYj8CNiSk_8Uwydcsj-6" value="" style="endArrow=none;html=1;fontFamily=Lucida Console;fontColor=#FFFFFF;strokeWidth=3;fillColor=#d5e8d4;strokeColor=#82b366;" parent="gkaCvpv3Q66eBZVGyOvY-1" edge="1">
                    <mxGeometry width="50" height="50" relative="1" as="geometry">
                        <mxPoint x="1000" y="1120" as="sourcePoint"/>
                        <mxPoint x="1000" y="560.0000000000001" as="targetPoint"/>
                    </mxGeometry>
                </mxCell>
                <mxCell id="CVyYj8CNiSk_8Uwydcsj-7" value="" style="endArrow=none;html=1;fontFamily=Lucida Console;fontColor=#FFFFFF;strokeWidth=3;fillColor=#fff2cc;strokeColor=#d6b656;" parent="gkaCvpv3Q66eBZVGyOvY-1" edge="1">
                    <mxGeometry width="50" height="50" relative="1" as="geometry">
                        <mxPoint x="1280" y="1120" as="sourcePoint"/>
                        <mxPoint x="1280" y="560.0000000000001" as="targetPoint"/>
                    </mxGeometry>
                </mxCell>
                <mxCell id="CVyYj8CNiSk_8Uwydcsj-8" value="" style="endArrow=none;html=1;fontFamily=Lucida Console;fontColor=#FFFFFF;strokeWidth=3;fillColor=#fff2cc;strokeColor=#d6b656;" parent="gkaCvpv3Q66eBZVGyOvY-1" edge="1">
                    <mxGeometry width="50" height="50" relative="1" as="geometry">
                        <mxPoint x="1420" y="1120" as="sourcePoint"/>
                        <mxPoint x="1420" y="560.0000000000001" as="targetPoint"/>
                    </mxGeometry>
                </mxCell>
                <mxCell id="CVyYj8CNiSk_8Uwydcsj-9" value="" style="endArrow=none;html=1;fontFamily=Lucida Console;fontColor=#FFFFFF;strokeWidth=3;fillColor=#ffe6cc;strokeColor=#d79b00;" parent="gkaCvpv3Q66eBZVGyOvY-1" edge="1">
                    <mxGeometry width="50" height="50" relative="1" as="geometry">
                        <mxPoint x="1560" y="1120" as="sourcePoint"/>
                        <mxPoint x="1560" y="560.0000000000001" as="targetPoint"/>
                    </mxGeometry>
                </mxCell>
                <mxCell id="CVyYj8CNiSk_8Uwydcsj-10" value="" style="endArrow=none;html=1;fontFamily=Lucida Console;fontColor=#FFFFFF;strokeWidth=3;fillColor=#f8cecc;strokeColor=#b85450;" parent="gkaCvpv3Q66eBZVGyOvY-1" edge="1">
                    <mxGeometry width="50" height="50" relative="1" as="geometry">
                        <mxPoint x="1700" y="1120" as="sourcePoint"/>
                        <mxPoint x="1700" y="560.0000000000001" as="targetPoint"/>
                    </mxGeometry>
                </mxCell>
                <mxCell id="CVyYj8CNiSk_8Uwydcsj-11" value="" style="endArrow=none;html=1;fontFamily=Lucida Console;fontColor=#FFFFFF;strokeWidth=3;fillColor=#d5e8d4;strokeColor=#82b366;" parent="gkaCvpv3Q66eBZVGyOvY-1" edge="1">
                    <mxGeometry width="50" height="50" relative="1" as="geometry">
                        <mxPoint x="1000" y="620" as="sourcePoint"/>
                        <mxPoint x="1120" y="620" as="targetPoint"/>
                    </mxGeometry>
                </mxCell>
                <mxCell id="CVyYj8CNiSk_8Uwydcsj-12" value="" style="endArrow=none;html=1;fontFamily=Lucida Console;fontColor=#FFFFFF;strokeWidth=3;fillColor=#dae8fc;strokeColor=#6c8ebf;" parent="gkaCvpv3Q66eBZVGyOvY-1" edge="1">
                    <mxGeometry width="50" height="50" relative="1" as="geometry">
                        <mxPoint x="1120" y="619.9999999999999" as="sourcePoint"/>
                        <mxPoint x="1260" y="620" as="targetPoint"/>
                    </mxGeometry>
                </mxCell>
                <mxCell id="CVyYj8CNiSk_8Uwydcsj-13" value="" style="endArrow=none;html=1;fontFamily=Lucida Console;fontColor=#FFFFFF;strokeWidth=3;fillColor=#fff2cc;strokeColor=#d6b656;" parent="gkaCvpv3Q66eBZVGyOvY-1" edge="1">
                    <mxGeometry width="50" height="50" relative="1" as="geometry">
                        <mxPoint x="1260" y="620" as="sourcePoint"/>
                        <mxPoint x="1440" y="620" as="targetPoint"/>
                    </mxGeometry>
                </mxCell>
                <mxCell id="CVyYj8CNiSk_8Uwydcsj-14" value="" style="endArrow=none;html=1;fontFamily=Lucida Console;fontColor=#FFFFFF;strokeWidth=3;fillColor=#ffe6cc;strokeColor=#d79b00;" parent="gkaCvpv3Q66eBZVGyOvY-1" edge="1">
                    <mxGeometry width="50" height="50" relative="1" as="geometry">
                        <mxPoint x="1440" y="620" as="sourcePoint"/>
                        <mxPoint x="1580" y="620" as="targetPoint"/>
                    </mxGeometry>
                </mxCell>
                <mxCell id="CVyYj8CNiSk_8Uwydcsj-15" value="" style="endArrow=none;html=1;fontFamily=Lucida Console;fontColor=#FFFFFF;strokeWidth=3;fillColor=#f8cecc;strokeColor=#b85450;" parent="gkaCvpv3Q66eBZVGyOvY-1" edge="1">
                    <mxGeometry width="50" height="50" relative="1" as="geometry">
                        <mxPoint x="1580" y="620" as="sourcePoint"/>
                        <mxPoint x="1700" y="620" as="targetPoint"/>
                    </mxGeometry>
                </mxCell>
                <mxCell id="CVyYj8CNiSk_8Uwydcsj-19" value="&lt;span&gt;Kaarten aan 2 mensen toekennen&lt;/span&gt;" style="rounded=1;whiteSpace=wrap;html=1;fillColor=#D6B656;strokeColor=#D6B656;fontFamily=Lucida Console;fontColor=#FFFFFF;fontSize=8;" parent="gkaCvpv3Q66eBZVGyOvY-1" vertex="1">
                    <mxGeometry x="1290" y="629" width="120" height="40" as="geometry"/>
                </mxCell>
                <mxCell id="CVyYj8CNiSk_8Uwydcsj-20" value="&lt;span&gt;Offtopic raken tijdens meetings&lt;/span&gt;" style="rounded=1;whiteSpace=wrap;html=1;fillColor=#D79B00;strokeColor=#d79b00;fontFamily=Lucida Console;fontColor=#FFFFFF;fontSize=8;" parent="gkaCvpv3Q66eBZVGyOvY-1" vertex="1">
                    <mxGeometry x="1430" y="629" width="120" height="40" as="geometry"/>
                </mxCell>
                <mxCell id="mQ27CKCXqm7jFjVzib8Z-0" value="Review proces definieren en toepassen" style="rounded=1;whiteSpace=wrap;html=1;fillColor=#82B366;strokeColor=#82b366;fontFamily=Lucida Console;fontColor=#FFFFFF;fontSize=8;" parent="gkaCvpv3Q66eBZVGyOvY-1" vertex="1">
                    <mxGeometry x="1010" y="629" width="120" height="40" as="geometry"/>
                </mxCell>
                <mxCell id="v-e6lIqqWozTFE5jYVEj-0" value="Kaarten bijhouden" style="rounded=1;whiteSpace=wrap;html=1;fillColor=#6C8EBF;strokeColor=#6c8ebf;fontFamily=Lucida Console;fontColor=#FFFFFF;fontSize=8;" parent="gkaCvpv3Q66eBZVGyOvY-1" vertex="1">
                    <mxGeometry x="1150" y="629" width="120" height="40" as="geometry"/>
                </mxCell>
                <mxCell id="v-e6lIqqWozTFE5jYVEj-1" value="&lt;span style=&quot;font-weight: normal&quot;&gt;Nick aanwezig&lt;/span&gt;" style="rounded=1;whiteSpace=wrap;html=1;fillColor=#6C8EBF;strokeColor=#6c8ebf;fontFamily=Lucida Console;fontColor=#FFFFFF;fontSize=8;fontStyle=1" parent="gkaCvpv3Q66eBZVGyOvY-1" vertex="1">
                    <mxGeometry x="1150" y="730" width="120" height="40" as="geometry"/>
                </mxCell>
                <mxCell id="v-e6lIqqWozTFE5jYVEj-2" value="Kaarten vroeg verdelen" style="rounded=1;whiteSpace=wrap;html=1;fillColor=#6C8EBF;strokeColor=#6c8ebf;fontFamily=Lucida Console;fontColor=#FFFFFF;fontSize=8;" parent="gkaCvpv3Q66eBZVGyOvY-1" vertex="1">
                    <mxGeometry x="1150" y="680" width="120" height="40" as="geometry"/>
                </mxCell>
                <mxCell id="v-e6lIqqWozTFE5jYVEj-6" value="&lt;span style=&quot;font-weight: normal&quot;&gt;Duidelijk maken wat er van een individu verwacht wordt&lt;/span&gt;" style="rounded=1;whiteSpace=wrap;html=1;fillColor=#6C8EBF;strokeColor=#6c8ebf;fontFamily=Lucida Console;fontColor=#FFFFFF;fontSize=8;fontStyle=1" parent="gkaCvpv3Q66eBZVGyOvY-1" vertex="1">
                    <mxGeometry x="1150" y="780" width="120" height="40" as="geometry"/>
                </mxCell>
                <mxCell id="mHdhDmM-pHsNwNyqCs7V-0" value="(Minstens) 2 dagen in de week fysiek op school de hele dag aan het werk" style="rounded=1;whiteSpace=wrap;html=1;fillColor=#82B366;strokeColor=#82b366;fontFamily=Lucida Console;fontColor=#FFFFFF;fontSize=8;" parent="gkaCvpv3Q66eBZVGyOvY-1" vertex="1">
                    <mxGeometry x="1010" y="680" width="120" height="40" as="geometry"/>
                </mxCell>
                <mxCell id="h5gPByT5W4XbKVB8On7Z-0" value="Dingen op het laatste moment te doen" style="rounded=1;whiteSpace=wrap;html=1;fillColor=#B85450;strokeColor=#b85450;fontFamily=Lucida Console;fontColor=#FFFFFF;fontSize=8;" parent="gkaCvpv3Q66eBZVGyOvY-1" vertex="1">
                    <mxGeometry x="1570" y="629" width="120" height="40" as="geometry"/>
                </mxCell>
                <mxCell id="-u40YryvwnVVDkCKse7L-0" value="&lt;span&gt;Reflecteren met Starfish&lt;/span&gt;" style="rounded=1;whiteSpace=wrap;html=1;fillColor=#D6B656;strokeColor=#D6B656;fontFamily=Lucida Console;fontColor=#FFFFFF;fontSize=8;" parent="gkaCvpv3Q66eBZVGyOvY-1" vertex="1">
                    <mxGeometry x="1290" y="680" width="120" height="40" as="geometry"/>
                </mxCell>
                <mxCell id="-u40YryvwnVVDkCKse7L-1" value="&lt;span style=&quot;font-weight: normal&quot;&gt;Reflectie toepassen&lt;/span&gt;" style="rounded=1;whiteSpace=wrap;html=1;fillColor=#6C8EBF;strokeColor=#6c8ebf;fontFamily=Lucida Console;fontColor=#FFFFFF;fontSize=8;fontStyle=1" parent="gkaCvpv3Q66eBZVGyOvY-1" vertex="1">
                    <mxGeometry x="1150" y="830" width="120" height="40" as="geometry"/>
                </mxCell>
                <mxCell id="-u40YryvwnVVDkCKse7L-4" value="&lt;span style=&quot;font-weight: 400&quot;&gt;Notulen maken streamlinen&lt;/span&gt;" style="rounded=1;whiteSpace=wrap;html=1;fillColor=#6C8EBF;strokeColor=#6c8ebf;fontFamily=Lucida Console;fontColor=#FFFFFF;fontSize=8;fontStyle=1" parent="gkaCvpv3Q66eBZVGyOvY-1" vertex="1">
                    <mxGeometry x="1150" y="880" width="120" height="40" as="geometry"/>
                </mxCell>
            </root>
        </mxGraphModel>
    </diagram>
    <diagram id="iuyqvsFJxzBmoi4Olf1B" name="Sprint 4">
        <mxGraphModel dx="-196" dy="381" grid="1" gridSize="10" guides="1" tooltips="1" connect="1" arrows="1" fold="1" page="1" pageScale="1" pageWidth="850" pageHeight="1100" math="0" shadow="0">
            <root>
                <mxCell id="1jv51Hyyy6OOydoWTvL0-0"/>
                <mxCell id="1jv51Hyyy6OOydoWTvL0-1" parent="1jv51Hyyy6OOydoWTvL0-0"/>
                <mxCell id="MRm6XHDpVaSTzzaqW2LL-0" value="&lt;font&gt;START&lt;/font&gt;" style="rounded=1;whiteSpace=wrap;html=1;fillColor=#82B366;strokeColor=#82b366;fontFamily=Lucida Console;fontColor=#FFFFFF;" parent="1jv51Hyyy6OOydoWTvL0-1" vertex="1">
                    <mxGeometry x="1010" y="570" width="120" height="40" as="geometry"/>
                </mxCell>
                <mxCell id="MRm6XHDpVaSTzzaqW2LL-1" value="&lt;font&gt;MORE OF&lt;/font&gt;" style="rounded=1;whiteSpace=wrap;html=1;fillColor=#6C8EBF;strokeColor=#6c8ebf;fontFamily=Lucida Console;fontColor=#FFFFFF;" parent="1jv51Hyyy6OOydoWTvL0-1" vertex="1">
                    <mxGeometry x="1150" y="570" width="120" height="40" as="geometry"/>
                </mxCell>
                <mxCell id="MRm6XHDpVaSTzzaqW2LL-2" value="&lt;font&gt;CONTINUE&lt;/font&gt;" style="rounded=1;whiteSpace=wrap;html=1;fillColor=#D6B656;strokeColor=#D6B656;fontFamily=Lucida Console;fontColor=#FFFFFF;" parent="1jv51Hyyy6OOydoWTvL0-1" vertex="1">
                    <mxGeometry x="1290" y="570" width="120" height="40" as="geometry"/>
                </mxCell>
                <mxCell id="MRm6XHDpVaSTzzaqW2LL-3" value="&lt;font&gt;LESS OF&lt;/font&gt;" style="rounded=1;whiteSpace=wrap;html=1;fillColor=#D79B00;strokeColor=#d79b00;fontFamily=Lucida Console;fontColor=#FFFFFF;" parent="1jv51Hyyy6OOydoWTvL0-1" vertex="1">
                    <mxGeometry x="1430" y="570" width="120" height="40" as="geometry"/>
                </mxCell>
                <mxCell id="MRm6XHDpVaSTzzaqW2LL-4" value="&lt;font&gt;STOP&lt;/font&gt;" style="rounded=1;whiteSpace=wrap;html=1;fillColor=#B85450;strokeColor=#b85450;fontFamily=Lucida Console;fontColor=#FFFFFF;" parent="1jv51Hyyy6OOydoWTvL0-1" vertex="1">
                    <mxGeometry x="1570" y="570" width="120" height="40" as="geometry"/>
                </mxCell>
                <mxCell id="MRm6XHDpVaSTzzaqW2LL-5" value="" style="endArrow=none;html=1;fontFamily=Lucida Console;fontColor=#FFFFFF;strokeWidth=3;fillColor=#dae8fc;strokeColor=#6c8ebf;" parent="1jv51Hyyy6OOydoWTvL0-1" edge="1">
                    <mxGeometry width="50" height="50" relative="1" as="geometry">
                        <mxPoint x="1140" y="1110" as="sourcePoint"/>
                        <mxPoint x="1140" y="550" as="targetPoint"/>
                    </mxGeometry>
                </mxCell>
                <mxCell id="MRm6XHDpVaSTzzaqW2LL-6" value="" style="endArrow=none;html=1;fontFamily=Lucida Console;fontColor=#FFFFFF;strokeWidth=3;fillColor=#d5e8d4;strokeColor=#82b366;" parent="1jv51Hyyy6OOydoWTvL0-1" edge="1">
                    <mxGeometry width="50" height="50" relative="1" as="geometry">
                        <mxPoint x="1000" y="1120" as="sourcePoint"/>
                        <mxPoint x="1000" y="560.0000000000001" as="targetPoint"/>
                    </mxGeometry>
                </mxCell>
                <mxCell id="MRm6XHDpVaSTzzaqW2LL-7" value="" style="endArrow=none;html=1;fontFamily=Lucida Console;fontColor=#FFFFFF;strokeWidth=3;fillColor=#fff2cc;strokeColor=#d6b656;" parent="1jv51Hyyy6OOydoWTvL0-1" edge="1">
                    <mxGeometry width="50" height="50" relative="1" as="geometry">
                        <mxPoint x="1280" y="1120" as="sourcePoint"/>
                        <mxPoint x="1280" y="560.0000000000001" as="targetPoint"/>
                    </mxGeometry>
                </mxCell>
                <mxCell id="MRm6XHDpVaSTzzaqW2LL-8" value="" style="endArrow=none;html=1;fontFamily=Lucida Console;fontColor=#FFFFFF;strokeWidth=3;fillColor=#fff2cc;strokeColor=#d6b656;" parent="1jv51Hyyy6OOydoWTvL0-1" edge="1">
                    <mxGeometry width="50" height="50" relative="1" as="geometry">
                        <mxPoint x="1420" y="1120" as="sourcePoint"/>
                        <mxPoint x="1420" y="560.0000000000001" as="targetPoint"/>
                    </mxGeometry>
                </mxCell>
                <mxCell id="MRm6XHDpVaSTzzaqW2LL-9" value="" style="endArrow=none;html=1;fontFamily=Lucida Console;fontColor=#FFFFFF;strokeWidth=3;fillColor=#ffe6cc;strokeColor=#d79b00;" parent="1jv51Hyyy6OOydoWTvL0-1" edge="1">
                    <mxGeometry width="50" height="50" relative="1" as="geometry">
                        <mxPoint x="1560" y="1120" as="sourcePoint"/>
                        <mxPoint x="1560" y="560.0000000000001" as="targetPoint"/>
                    </mxGeometry>
                </mxCell>
                <mxCell id="MRm6XHDpVaSTzzaqW2LL-10" value="" style="endArrow=none;html=1;fontFamily=Lucida Console;fontColor=#FFFFFF;strokeWidth=3;fillColor=#f8cecc;strokeColor=#b85450;" parent="1jv51Hyyy6OOydoWTvL0-1" edge="1">
                    <mxGeometry width="50" height="50" relative="1" as="geometry">
                        <mxPoint x="1700" y="1120" as="sourcePoint"/>
                        <mxPoint x="1700" y="560.0000000000001" as="targetPoint"/>
                    </mxGeometry>
                </mxCell>
                <mxCell id="MRm6XHDpVaSTzzaqW2LL-11" value="" style="endArrow=none;html=1;fontFamily=Lucida Console;fontColor=#FFFFFF;strokeWidth=3;fillColor=#d5e8d4;strokeColor=#82b366;" parent="1jv51Hyyy6OOydoWTvL0-1" edge="1">
                    <mxGeometry width="50" height="50" relative="1" as="geometry">
                        <mxPoint x="1000" y="620" as="sourcePoint"/>
                        <mxPoint x="1120" y="620" as="targetPoint"/>
                    </mxGeometry>
                </mxCell>
                <mxCell id="MRm6XHDpVaSTzzaqW2LL-12" value="" style="endArrow=none;html=1;fontFamily=Lucida Console;fontColor=#FFFFFF;strokeWidth=3;fillColor=#dae8fc;strokeColor=#6c8ebf;" parent="1jv51Hyyy6OOydoWTvL0-1" edge="1">
                    <mxGeometry width="50" height="50" relative="1" as="geometry">
                        <mxPoint x="1120" y="619.9999999999999" as="sourcePoint"/>
                        <mxPoint x="1260" y="620" as="targetPoint"/>
                    </mxGeometry>
                </mxCell>
                <mxCell id="MRm6XHDpVaSTzzaqW2LL-13" value="" style="endArrow=none;html=1;fontFamily=Lucida Console;fontColor=#FFFFFF;strokeWidth=3;fillColor=#fff2cc;strokeColor=#d6b656;" parent="1jv51Hyyy6OOydoWTvL0-1" edge="1">
                    <mxGeometry width="50" height="50" relative="1" as="geometry">
                        <mxPoint x="1260" y="620" as="sourcePoint"/>
                        <mxPoint x="1440" y="620" as="targetPoint"/>
                    </mxGeometry>
                </mxCell>
                <mxCell id="MRm6XHDpVaSTzzaqW2LL-14" value="" style="endArrow=none;html=1;fontFamily=Lucida Console;fontColor=#FFFFFF;strokeWidth=3;fillColor=#ffe6cc;strokeColor=#d79b00;" parent="1jv51Hyyy6OOydoWTvL0-1" edge="1">
                    <mxGeometry width="50" height="50" relative="1" as="geometry">
                        <mxPoint x="1440" y="620" as="sourcePoint"/>
                        <mxPoint x="1580" y="620" as="targetPoint"/>
                    </mxGeometry>
                </mxCell>
                <mxCell id="MRm6XHDpVaSTzzaqW2LL-15" value="" style="endArrow=none;html=1;fontFamily=Lucida Console;fontColor=#FFFFFF;strokeWidth=3;fillColor=#f8cecc;strokeColor=#b85450;" parent="1jv51Hyyy6OOydoWTvL0-1" edge="1">
                    <mxGeometry width="50" height="50" relative="1" as="geometry">
                        <mxPoint x="1580" y="620" as="sourcePoint"/>
                        <mxPoint x="1700" y="620" as="targetPoint"/>
                    </mxGeometry>
                </mxCell>
                <mxCell id="MRm6XHDpVaSTzzaqW2LL-17" value="Strakke tijden voor meetings aanhouden" style="rounded=1;whiteSpace=wrap;html=1;fillColor=#82B366;strokeColor=#82b366;fontFamily=Lucida Console;fontColor=#FFFFFF;fontSize=8;" parent="1jv51Hyyy6OOydoWTvL0-1" vertex="1">
                    <mxGeometry x="1010" y="629" width="120" height="40" as="geometry"/>
                </mxCell>
                <mxCell id="MRm6XHDpVaSTzzaqW2LL-18" value="Duidelijker aan de opdrachtgever maken wanneer dingen worden opgeleverd" style="rounded=1;whiteSpace=wrap;html=1;fillColor=#6C8EBF;strokeColor=#6c8ebf;fontFamily=Lucida Console;fontColor=#FFFFFF;fontSize=8;" parent="1jv51Hyyy6OOydoWTvL0-1" vertex="1">
                    <mxGeometry x="1150" y="629" width="120" height="40" as="geometry"/>
                </mxCell>
                <mxCell id="MRm6XHDpVaSTzzaqW2LL-19" value="Review process toepassen" style="rounded=1;whiteSpace=wrap;html=1;fillColor=#D6B656;strokeColor=#D6B656;fontFamily=Lucida Console;fontColor=#FFFFFF;fontSize=8;" parent="1jv51Hyyy6OOydoWTvL0-1" vertex="1">
                    <mxGeometry x="1290" y="629" width="120" height="40" as="geometry"/>
                </mxCell>
                <mxCell id="MRm6XHDpVaSTzzaqW2LL-20" value="Dingen op het laatste moment doen" style="rounded=1;whiteSpace=wrap;html=1;fillColor=#D79B00;strokeColor=#d79b00;fontFamily=Lucida Console;fontColor=#FFFFFF;fontSize=8;" parent="1jv51Hyyy6OOydoWTvL0-1" vertex="1">
                    <mxGeometry x="1430" y="680" width="120" height="40" as="geometry"/>
                </mxCell>
                <mxCell id="8L1cIqoV9hJM7YW98z2H-0" value="2 Dagen in de week fysiek op school aan het werk" style="rounded=1;whiteSpace=wrap;html=1;fillColor=#D6B656;strokeColor=#D6B656;fontFamily=Lucida Console;fontColor=#FFFFFF;fontSize=8;" parent="1jv51Hyyy6OOydoWTvL0-1" vertex="1">
                    <mxGeometry x="1290" y="680" width="120" height="40" as="geometry"/>
                </mxCell>
                <mxCell id="5c96cMD8979QX8xrtguz-0" value="Kaarten bijhouden" style="rounded=1;whiteSpace=wrap;html=1;fillColor=#D6B656;strokeColor=#D6B656;fontFamily=Lucida Console;fontColor=#FFFFFF;fontSize=8;" parent="1jv51Hyyy6OOydoWTvL0-1" vertex="1">
                    <mxGeometry x="1290" y="730" width="120" height="40" as="geometry"/>
                </mxCell>
                <mxCell id="BXmm4WAH-JEJIv0BBihp-0" value="Kaarten vroeg aanwezig" style="rounded=1;whiteSpace=wrap;html=1;fillColor=#D6B656;strokeColor=#D6B656;fontFamily=Lucida Console;fontColor=#FFFFFF;fontSize=8;" parent="1jv51Hyyy6OOydoWTvL0-1" vertex="1">
                    <mxGeometry x="1290" y="780" width="120" height="40" as="geometry"/>
                </mxCell>
                <mxCell id="Var4GNhkOaPzOcC7lsFN-0" value="Nick aanwezig" style="rounded=1;whiteSpace=wrap;html=1;fillColor=#D6B656;strokeColor=#D6B656;fontFamily=Lucida Console;fontColor=#FFFFFF;fontSize=8;" parent="1jv51Hyyy6OOydoWTvL0-1" vertex="1">
                    <mxGeometry x="1290" y="830" width="120" height="40" as="geometry"/>
                </mxCell>
                <mxCell id="UpsFi_Se6IlsRTTuxPjr-0" value="&lt;span style=&quot;font-weight: normal&quot;&gt;Duidelijk maken wat er van een individu verwacht wordt&lt;/span&gt;" style="rounded=1;whiteSpace=wrap;html=1;fillColor=#6C8EBF;strokeColor=#6c8ebf;fontFamily=Lucida Console;fontColor=#FFFFFF;fontSize=8;fontStyle=1" parent="1jv51Hyyy6OOydoWTvL0-1" vertex="1">
                    <mxGeometry x="1150" y="680" width="120" height="40" as="geometry"/>
                </mxCell>
                <mxCell id="4McrKHIUwbFaLRZMXRtY-0" value="Reflectie toepassen" style="rounded=1;whiteSpace=wrap;html=1;fillColor=#D6B656;strokeColor=#D6B656;fontFamily=Lucida Console;fontColor=#FFFFFF;fontSize=8;" parent="1jv51Hyyy6OOydoWTvL0-1" vertex="1">
                    <mxGeometry x="1290" y="880" width="120" height="40" as="geometry"/>
                </mxCell>
                <mxCell id="Ld2cWho9az3nCXOM9BO2-0" value="&lt;span&gt;Kaarten aan 2 mensen toekennen&lt;/span&gt;" style="rounded=1;whiteSpace=wrap;html=1;fillColor=#D6B656;strokeColor=#D6B656;fontFamily=Lucida Console;fontColor=#FFFFFF;fontSize=8;" parent="1jv51Hyyy6OOydoWTvL0-1" vertex="1">
                    <mxGeometry x="1290" y="930" width="120" height="40" as="geometry"/>
                </mxCell>
                <mxCell id="Ld2cWho9az3nCXOM9BO2-1" value="&lt;span&gt;Reflecteren met Starfish&lt;/span&gt;" style="rounded=1;whiteSpace=wrap;html=1;fillColor=#D6B656;strokeColor=#D6B656;fontFamily=Lucida Console;fontColor=#FFFFFF;fontSize=8;" parent="1jv51Hyyy6OOydoWTvL0-1" vertex="1">
                    <mxGeometry x="1290" y="981" width="120" height="40" as="geometry"/>
                </mxCell>
                <mxCell id="lGYzR61h3LWpU1ySsVW0-0" value="" style="rounded=1;whiteSpace=wrap;html=1;fillColor=#B85450;strokeColor=#b85450;fontFamily=Lucida Console;fontColor=#FFFFFF;fontSize=8;" parent="1jv51Hyyy6OOydoWTvL0-1" vertex="1">
                    <mxGeometry x="1570" y="629" width="120" height="40" as="geometry"/>
                </mxCell>
                <mxCell id="2jCfS0N7HBBL3yqgQMqa-0" value="&lt;span&gt;Offtopic raken tijdens meetings&lt;/span&gt;" style="rounded=1;whiteSpace=wrap;html=1;fillColor=#D79B00;strokeColor=#d79b00;fontFamily=Lucida Console;fontColor=#FFFFFF;fontSize=8;" parent="1jv51Hyyy6OOydoWTvL0-1" vertex="1">
                    <mxGeometry x="1430" y="629" width="120" height="40" as="geometry"/>
                </mxCell>
                <mxCell id="2jCfS0N7HBBL3yqgQMqa-1" value="Dingen daadwerkelijk opleveren die worden beloofd" style="rounded=1;whiteSpace=wrap;html=1;fillColor=#6C8EBF;strokeColor=#6c8ebf;fontFamily=Lucida Console;fontColor=#FFFFFF;fontSize=8;" parent="1jv51Hyyy6OOydoWTvL0-1" vertex="1">
                    <mxGeometry x="1150" y="730" width="120" height="40" as="geometry"/>
                </mxCell>
            </root>
        </mxGraphModel>
    </diagram>
    <diagram id="5WxBmlDxBeDfMbCWCm4e" name="Sprint 5">
        <mxGraphModel dx="20" dy="431" grid="1" gridSize="10" guides="1" tooltips="1" connect="1" arrows="1" fold="1" page="1" pageScale="1" pageWidth="850" pageHeight="1100" math="0" shadow="0">
            <root>
                <mxCell id="EgyU_JwmTStqvshgftFE-0"/>
                <mxCell id="EgyU_JwmTStqvshgftFE-1" parent="EgyU_JwmTStqvshgftFE-0"/>
                <mxCell id="7uS4D4G_KZT0SfTqxQNg-0" value="&lt;font&gt;START&lt;/font&gt;" style="rounded=1;whiteSpace=wrap;html=1;fillColor=#82B366;strokeColor=#82b366;fontFamily=Lucida Console;fontColor=#FFFFFF;" parent="EgyU_JwmTStqvshgftFE-1" vertex="1">
                    <mxGeometry x="1010" y="570" width="120" height="40" as="geometry"/>
                </mxCell>
                <mxCell id="7uS4D4G_KZT0SfTqxQNg-1" value="&lt;font&gt;MORE OF&lt;/font&gt;" style="rounded=1;whiteSpace=wrap;html=1;fillColor=#6C8EBF;strokeColor=#6c8ebf;fontFamily=Lucida Console;fontColor=#FFFFFF;" parent="EgyU_JwmTStqvshgftFE-1" vertex="1">
                    <mxGeometry x="1150" y="570" width="120" height="40" as="geometry"/>
                </mxCell>
                <mxCell id="7uS4D4G_KZT0SfTqxQNg-2" value="&lt;font&gt;CONTINUE&lt;/font&gt;" style="rounded=1;whiteSpace=wrap;html=1;fillColor=#D6B656;strokeColor=#D6B656;fontFamily=Lucida Console;fontColor=#FFFFFF;" parent="EgyU_JwmTStqvshgftFE-1" vertex="1">
                    <mxGeometry x="1290" y="570" width="120" height="40" as="geometry"/>
                </mxCell>
                <mxCell id="7uS4D4G_KZT0SfTqxQNg-3" value="&lt;font&gt;LESS OF&lt;/font&gt;" style="rounded=1;whiteSpace=wrap;html=1;fillColor=#D79B00;strokeColor=#d79b00;fontFamily=Lucida Console;fontColor=#FFFFFF;" parent="EgyU_JwmTStqvshgftFE-1" vertex="1">
                    <mxGeometry x="1430" y="570" width="120" height="40" as="geometry"/>
                </mxCell>
                <mxCell id="7uS4D4G_KZT0SfTqxQNg-4" value="&lt;font&gt;STOP&lt;/font&gt;" style="rounded=1;whiteSpace=wrap;html=1;fillColor=#B85450;strokeColor=#b85450;fontFamily=Lucida Console;fontColor=#FFFFFF;" parent="EgyU_JwmTStqvshgftFE-1" vertex="1">
                    <mxGeometry x="1570" y="570" width="120" height="40" as="geometry"/>
                </mxCell>
                <mxCell id="7uS4D4G_KZT0SfTqxQNg-5" value="" style="endArrow=none;html=1;fontFamily=Lucida Console;fontColor=#FFFFFF;strokeWidth=3;fillColor=#dae8fc;strokeColor=#6c8ebf;" parent="EgyU_JwmTStqvshgftFE-1" edge="1">
                    <mxGeometry width="50" height="50" relative="1" as="geometry">
                        <mxPoint x="1140" y="1120" as="sourcePoint"/>
                        <mxPoint x="1140" y="560" as="targetPoint"/>
                    </mxGeometry>
                </mxCell>
                <mxCell id="7uS4D4G_KZT0SfTqxQNg-6" value="" style="endArrow=none;html=1;fontFamily=Lucida Console;fontColor=#FFFFFF;strokeWidth=3;fillColor=#d5e8d4;strokeColor=#82b366;" parent="EgyU_JwmTStqvshgftFE-1" edge="1">
                    <mxGeometry width="50" height="50" relative="1" as="geometry">
                        <mxPoint x="1000" y="1120" as="sourcePoint"/>
                        <mxPoint x="1000" y="560.0000000000001" as="targetPoint"/>
                    </mxGeometry>
                </mxCell>
                <mxCell id="7uS4D4G_KZT0SfTqxQNg-7" value="" style="endArrow=none;html=1;fontFamily=Lucida Console;fontColor=#FFFFFF;strokeWidth=3;fillColor=#fff2cc;strokeColor=#d6b656;" parent="EgyU_JwmTStqvshgftFE-1" edge="1">
                    <mxGeometry width="50" height="50" relative="1" as="geometry">
                        <mxPoint x="1280" y="1120" as="sourcePoint"/>
                        <mxPoint x="1280" y="560.0000000000001" as="targetPoint"/>
                    </mxGeometry>
                </mxCell>
                <mxCell id="7uS4D4G_KZT0SfTqxQNg-8" value="" style="endArrow=none;html=1;fontFamily=Lucida Console;fontColor=#FFFFFF;strokeWidth=3;fillColor=#fff2cc;strokeColor=#d6b656;" parent="EgyU_JwmTStqvshgftFE-1" edge="1">
                    <mxGeometry width="50" height="50" relative="1" as="geometry">
                        <mxPoint x="1420" y="1120" as="sourcePoint"/>
                        <mxPoint x="1420" y="560.0000000000001" as="targetPoint"/>
                    </mxGeometry>
                </mxCell>
                <mxCell id="7uS4D4G_KZT0SfTqxQNg-9" value="" style="endArrow=none;html=1;fontFamily=Lucida Console;fontColor=#FFFFFF;strokeWidth=3;fillColor=#ffe6cc;strokeColor=#d79b00;" parent="EgyU_JwmTStqvshgftFE-1" edge="1">
                    <mxGeometry width="50" height="50" relative="1" as="geometry">
                        <mxPoint x="1560" y="1120" as="sourcePoint"/>
                        <mxPoint x="1560" y="560.0000000000001" as="targetPoint"/>
                    </mxGeometry>
                </mxCell>
                <mxCell id="7uS4D4G_KZT0SfTqxQNg-10" value="" style="endArrow=none;html=1;fontFamily=Lucida Console;fontColor=#FFFFFF;strokeWidth=3;fillColor=#f8cecc;strokeColor=#b85450;" parent="EgyU_JwmTStqvshgftFE-1" edge="1">
                    <mxGeometry width="50" height="50" relative="1" as="geometry">
                        <mxPoint x="1700" y="1120" as="sourcePoint"/>
                        <mxPoint x="1700" y="560.0000000000001" as="targetPoint"/>
                    </mxGeometry>
                </mxCell>
                <mxCell id="7uS4D4G_KZT0SfTqxQNg-11" value="" style="endArrow=none;html=1;fontFamily=Lucida Console;fontColor=#FFFFFF;strokeWidth=3;fillColor=#d5e8d4;strokeColor=#82b366;" parent="EgyU_JwmTStqvshgftFE-1" edge="1">
                    <mxGeometry width="50" height="50" relative="1" as="geometry">
                        <mxPoint x="1000" y="620" as="sourcePoint"/>
                        <mxPoint x="1120" y="620" as="targetPoint"/>
                    </mxGeometry>
                </mxCell>
                <mxCell id="7uS4D4G_KZT0SfTqxQNg-12" value="" style="endArrow=none;html=1;fontFamily=Lucida Console;fontColor=#FFFFFF;strokeWidth=3;fillColor=#dae8fc;strokeColor=#6c8ebf;" parent="EgyU_JwmTStqvshgftFE-1" edge="1">
                    <mxGeometry width="50" height="50" relative="1" as="geometry">
                        <mxPoint x="1120" y="619.9999999999999" as="sourcePoint"/>
                        <mxPoint x="1260" y="620" as="targetPoint"/>
                    </mxGeometry>
                </mxCell>
                <mxCell id="7uS4D4G_KZT0SfTqxQNg-13" value="" style="endArrow=none;html=1;fontFamily=Lucida Console;fontColor=#FFFFFF;strokeWidth=3;fillColor=#fff2cc;strokeColor=#d6b656;" parent="EgyU_JwmTStqvshgftFE-1" edge="1">
                    <mxGeometry width="50" height="50" relative="1" as="geometry">
                        <mxPoint x="1260" y="620" as="sourcePoint"/>
                        <mxPoint x="1440" y="620" as="targetPoint"/>
                    </mxGeometry>
                </mxCell>
                <mxCell id="7uS4D4G_KZT0SfTqxQNg-14" value="" style="endArrow=none;html=1;fontFamily=Lucida Console;fontColor=#FFFFFF;strokeWidth=3;fillColor=#ffe6cc;strokeColor=#d79b00;" parent="EgyU_JwmTStqvshgftFE-1" edge="1">
                    <mxGeometry width="50" height="50" relative="1" as="geometry">
                        <mxPoint x="1440" y="620" as="sourcePoint"/>
                        <mxPoint x="1580" y="620" as="targetPoint"/>
                    </mxGeometry>
                </mxCell>
                <mxCell id="7uS4D4G_KZT0SfTqxQNg-15" value="" style="endArrow=none;html=1;fontFamily=Lucida Console;fontColor=#FFFFFF;strokeWidth=3;fillColor=#f8cecc;strokeColor=#b85450;" parent="EgyU_JwmTStqvshgftFE-1" edge="1">
                    <mxGeometry width="50" height="50" relative="1" as="geometry">
                        <mxPoint x="1580" y="620" as="sourcePoint"/>
                        <mxPoint x="1700" y="620" as="targetPoint"/>
                    </mxGeometry>
                </mxCell>
                <mxCell id="7uS4D4G_KZT0SfTqxQNg-16" value="Daily standup" style="rounded=1;whiteSpace=wrap;html=1;fillColor=#B85450;strokeColor=#b85450;fontFamily=Lucida Console;fontColor=#FFFFFF;fontSize=8;" parent="EgyU_JwmTStqvshgftFE-1" vertex="1">
                    <mxGeometry x="1570" y="629" width="120" height="40" as="geometry"/>
                </mxCell>
                <mxCell id="7uS4D4G_KZT0SfTqxQNg-18" value="&lt;span&gt;Strakke tijden voor meetings aanhouden&lt;/span&gt;" style="rounded=1;whiteSpace=wrap;html=1;fillColor=#6C8EBF;strokeColor=#6c8ebf;fontFamily=Lucida Console;fontColor=#FFFFFF;fontSize=8;" parent="EgyU_JwmTStqvshgftFE-1" vertex="1">
                    <mxGeometry x="1150" y="629" width="120" height="40" as="geometry"/>
                </mxCell>
                <mxCell id="7uS4D4G_KZT0SfTqxQNg-19" value="&lt;span&gt;Duidelijk maken wat er van een individu verwacht wordt&lt;/span&gt;" style="rounded=1;whiteSpace=wrap;html=1;fillColor=#D6B656;strokeColor=#D6B656;fontFamily=Lucida Console;fontColor=#FFFFFF;fontSize=8;" parent="EgyU_JwmTStqvshgftFE-1" vertex="1">
                    <mxGeometry x="1290" y="629" width="120" height="40" as="geometry"/>
                </mxCell>
                <mxCell id="7uS4D4G_KZT0SfTqxQNg-20" value="" style="rounded=1;whiteSpace=wrap;html=1;fillColor=#D79B00;strokeColor=#d79b00;fontFamily=Lucida Console;fontColor=#FFFFFF;fontSize=8;" parent="EgyU_JwmTStqvshgftFE-1" vertex="1">
                    <mxGeometry x="1430" y="629" width="120" height="40" as="geometry"/>
                </mxCell>
                <mxCell id="3-jHk8vX6ICV6hOLliVI-0" value="Meer taken vroeg inschatten" style="rounded=1;whiteSpace=wrap;html=1;fillColor=#82B366;strokeColor=#82b366;fontFamily=Lucida Console;fontColor=#FFFFFF;fontSize=8;" parent="EgyU_JwmTStqvshgftFE-1" vertex="1">
                    <mxGeometry x="1010" y="629" width="120" height="40" as="geometry"/>
                </mxCell>
                <mxCell id="UzjOUcLkQmT4mIGzbPe8-0" value="Duidelijker aan de opdrachtgever maken wanneer dingen worden opgeleverd" style="rounded=1;whiteSpace=wrap;html=1;fillColor=#6C8EBF;strokeColor=#6c8ebf;fontFamily=Lucida Console;fontColor=#FFFFFF;fontSize=8;" parent="EgyU_JwmTStqvshgftFE-1" vertex="1">
                    <mxGeometry x="1150" y="680" width="120" height="40" as="geometry"/>
                </mxCell>
                <mxCell id="XsG1JxhzJDbBNIYlTR9W-0" value="Dingen daadwerkelijk opleveren die worden beloofd" style="rounded=1;whiteSpace=wrap;html=1;fillColor=#6C8EBF;strokeColor=#6c8ebf;fontFamily=Lucida Console;fontColor=#FFFFFF;fontSize=8;" parent="EgyU_JwmTStqvshgftFE-1" vertex="1">
                    <mxGeometry x="1150" y="730" width="120" height="40" as="geometry"/>
                </mxCell>
                <mxCell id="M4zVJgVzYS3ivsJUt3Q1-0" value="Review process toepassen" style="rounded=1;whiteSpace=wrap;html=1;fillColor=#D6B656;strokeColor=#D6B656;fontFamily=Lucida Console;fontColor=#FFFFFF;fontSize=8;" parent="EgyU_JwmTStqvshgftFE-1" vertex="1">
                    <mxGeometry x="1290" y="680" width="120" height="40" as="geometry"/>
                </mxCell>
                <mxCell id="HhDrULP-lj6e8vjQT8Pi-0" value="2 Dagen in de week fysiek op school aan het werk" style="rounded=1;whiteSpace=wrap;html=1;fillColor=#D6B656;strokeColor=#D6B656;fontFamily=Lucida Console;fontColor=#FFFFFF;fontSize=8;" parent="EgyU_JwmTStqvshgftFE-1" vertex="1">
                    <mxGeometry x="1290" y="730" width="120" height="40" as="geometry"/>
                </mxCell>
                <mxCell id="Ds-QCZqjDGu2x_rDzPIr-0" value="Kaarten bijhouden" style="rounded=1;whiteSpace=wrap;html=1;fillColor=#6C8EBF;strokeColor=#6c8ebf;fontFamily=Lucida Console;fontColor=#FFFFFF;fontSize=8;" parent="EgyU_JwmTStqvshgftFE-1" vertex="1">
                    <mxGeometry x="1150" y="780" width="120" height="40" as="geometry"/>
                </mxCell>
                <mxCell id="6iOz1CFUm8X5vf9Jjmc8-0" value="Kaarten vroeg aanwezig" style="rounded=1;whiteSpace=wrap;html=1;fillColor=#6C8EBF;strokeColor=#6c8ebf;fontFamily=Lucida Console;fontColor=#FFFFFF;fontSize=8;" parent="EgyU_JwmTStqvshgftFE-1" vertex="1">
                    <mxGeometry x="1150" y="830" width="120" height="40" as="geometry"/>
                </mxCell>
                <mxCell id="hVc-2holXparLHKkWUVs-0" value="Reflectie toepassen" style="rounded=1;whiteSpace=wrap;html=1;fillColor=#D6B656;strokeColor=#D6B656;fontFamily=Lucida Console;fontColor=#FFFFFF;fontSize=8;" parent="EgyU_JwmTStqvshgftFE-1" vertex="1">
                    <mxGeometry x="1290" y="780" width="120" height="40" as="geometry"/>
                </mxCell>
                <mxCell id="Zt4a1xPwydVzd2fCU5Uq-0" value="&lt;span&gt;Kaarten aan 2 mensen toekennen&lt;/span&gt;" style="rounded=1;whiteSpace=wrap;html=1;fillColor=#D6B656;strokeColor=#D6B656;fontFamily=Lucida Console;fontColor=#FFFFFF;fontSize=8;" parent="EgyU_JwmTStqvshgftFE-1" vertex="1">
                    <mxGeometry x="1290" y="830" width="120" height="40" as="geometry"/>
                </mxCell>
                <mxCell id="ZWKclM2VJafbU4WHBu8s-0" value="&lt;span&gt;Reflecteren met Starfish&lt;/span&gt;" style="rounded=1;whiteSpace=wrap;html=1;fillColor=#D6B656;strokeColor=#D6B656;fontFamily=Lucida Console;fontColor=#FFFFFF;fontSize=8;" parent="EgyU_JwmTStqvshgftFE-1" vertex="1">
                    <mxGeometry x="1290" y="880" width="120" height="40" as="geometry"/>
                </mxCell>
                <mxCell id="Wz9ZyLhT9PZuHDHFDasK-0" value="NIET Offtopic raken tijdens meetings" style="rounded=1;whiteSpace=wrap;html=1;fillColor=#D6B656;strokeColor=#D6B656;fontFamily=Lucida Console;fontColor=#FFFFFF;fontSize=8;" parent="EgyU_JwmTStqvshgftFE-1" vertex="1">
                    <mxGeometry x="1290" y="930" width="120" height="40" as="geometry"/>
                </mxCell>
                <mxCell id="4j9KQsPyi0aUMQX5cSkt-0" value="NIET Dingen op het laatste moment doen" style="rounded=1;whiteSpace=wrap;html=1;fillColor=#D6B656;strokeColor=#D6B656;fontFamily=Lucida Console;fontColor=#FFFFFF;fontSize=8;" parent="EgyU_JwmTStqvshgftFE-1" vertex="1">
                    <mxGeometry x="1290" y="980" width="120" height="40" as="geometry"/>
                </mxCell>
                <mxCell id="Pb9qKdTPSg1jNCtOH2b7-0" value="Sprint planning na sprinte demo" style="rounded=1;whiteSpace=wrap;html=1;fillColor=#82B366;strokeColor=#82b366;fontFamily=Lucida Console;fontColor=#FFFFFF;fontSize=8;" parent="EgyU_JwmTStqvshgftFE-1" vertex="1">
                    <mxGeometry x="1010" y="680" width="120" height="40" as="geometry"/>
                </mxCell>
                <mxCell id="Pb9qKdTPSg1jNCtOH2b7-1" value="Events in Discord gebruiken&amp;nbsp;" style="rounded=1;whiteSpace=wrap;html=1;fillColor=#6C8EBF;strokeColor=#6c8ebf;fontFamily=Lucida Console;fontColor=#FFFFFF;fontSize=8;" parent="EgyU_JwmTStqvshgftFE-1" vertex="1">
                    <mxGeometry x="1150" y="880" width="120" height="40" as="geometry"/>
                </mxCell>
                <mxCell id="Pb9qKdTPSg1jNCtOH2b7-3" value="Afspreken wanneer aanwezig" style="rounded=1;whiteSpace=wrap;html=1;fillColor=#6C8EBF;strokeColor=#6c8ebf;fontFamily=Lucida Console;fontColor=#FFFFFF;fontSize=8;" parent="EgyU_JwmTStqvshgftFE-1" vertex="1">
                    <mxGeometry x="1150" y="930" width="120" height="40" as="geometry"/>
                </mxCell>
            </root>
        </mxGraphModel>
    </diagram>
    <diagram id="8Yi76RVoqQWHnIH1hT_D" name="Sprint 6">
        <mxGraphModel dx="-79" dy="-43" grid="1" gridSize="10" guides="1" tooltips="1" connect="1" arrows="1" fold="1" page="0" pageScale="1" pageWidth="850" pageHeight="1100" math="0" shadow="0">
            <root>
                <mxCell id="rkrr86saiVQCqNrHMcck-0"/>
                <mxCell id="rkrr86saiVQCqNrHMcck-1" parent="rkrr86saiVQCqNrHMcck-0"/>
                <mxCell id="9RKFZUtvvwKJRX-urCKo-0" value="&lt;font&gt;START&lt;/font&gt;" style="rounded=1;whiteSpace=wrap;html=1;fillColor=#82B366;strokeColor=#82b366;fontFamily=Lucida Console;fontColor=#FFFFFF;" vertex="1" parent="rkrr86saiVQCqNrHMcck-1">
                    <mxGeometry x="1010" y="570" width="120" height="40" as="geometry"/>
                </mxCell>
                <mxCell id="9RKFZUtvvwKJRX-urCKo-1" value="&lt;font&gt;MORE OF&lt;/font&gt;" style="rounded=1;whiteSpace=wrap;html=1;fillColor=#6C8EBF;strokeColor=#6c8ebf;fontFamily=Lucida Console;fontColor=#FFFFFF;" vertex="1" parent="rkrr86saiVQCqNrHMcck-1">
                    <mxGeometry x="1150" y="570" width="120" height="40" as="geometry"/>
                </mxCell>
                <mxCell id="9RKFZUtvvwKJRX-urCKo-2" value="&lt;font&gt;CONTINUE&lt;/font&gt;" style="rounded=1;whiteSpace=wrap;html=1;fillColor=#D6B656;strokeColor=#D6B656;fontFamily=Lucida Console;fontColor=#FFFFFF;" vertex="1" parent="rkrr86saiVQCqNrHMcck-1">
                    <mxGeometry x="1290" y="570" width="120" height="40" as="geometry"/>
                </mxCell>
                <mxCell id="9RKFZUtvvwKJRX-urCKo-3" value="&lt;font&gt;LESS OF&lt;/font&gt;" style="rounded=1;whiteSpace=wrap;html=1;fillColor=#D79B00;strokeColor=#d79b00;fontFamily=Lucida Console;fontColor=#FFFFFF;" vertex="1" parent="rkrr86saiVQCqNrHMcck-1">
                    <mxGeometry x="1430" y="570" width="120" height="40" as="geometry"/>
                </mxCell>
                <mxCell id="9RKFZUtvvwKJRX-urCKo-4" value="&lt;font&gt;STOP&lt;/font&gt;" style="rounded=1;whiteSpace=wrap;html=1;fillColor=#B85450;strokeColor=#b85450;fontFamily=Lucida Console;fontColor=#FFFFFF;" vertex="1" parent="rkrr86saiVQCqNrHMcck-1">
                    <mxGeometry x="1570" y="570" width="120" height="40" as="geometry"/>
                </mxCell>
                <mxCell id="9RKFZUtvvwKJRX-urCKo-5" value="" style="endArrow=none;html=1;fontFamily=Lucida Console;fontColor=#FFFFFF;strokeWidth=3;fillColor=#dae8fc;strokeColor=#6c8ebf;" edge="1" parent="rkrr86saiVQCqNrHMcck-1">
                    <mxGeometry width="50" height="50" relative="1" as="geometry">
                        <mxPoint x="1140" y="1120" as="sourcePoint"/>
                        <mxPoint x="1140" y="560" as="targetPoint"/>
                    </mxGeometry>
                </mxCell>
                <mxCell id="9RKFZUtvvwKJRX-urCKo-6" value="" style="endArrow=none;html=1;fontFamily=Lucida Console;fontColor=#FFFFFF;strokeWidth=3;fillColor=#d5e8d4;strokeColor=#82b366;" edge="1" parent="rkrr86saiVQCqNrHMcck-1">
                    <mxGeometry width="50" height="50" relative="1" as="geometry">
                        <mxPoint x="1000" y="1120" as="sourcePoint"/>
                        <mxPoint x="1000" y="560.0000000000001" as="targetPoint"/>
                    </mxGeometry>
                </mxCell>
                <mxCell id="9RKFZUtvvwKJRX-urCKo-7" value="" style="endArrow=none;html=1;fontFamily=Lucida Console;fontColor=#FFFFFF;strokeWidth=3;fillColor=#fff2cc;strokeColor=#d6b656;" edge="1" parent="rkrr86saiVQCqNrHMcck-1">
                    <mxGeometry width="50" height="50" relative="1" as="geometry">
                        <mxPoint x="1280" y="1120" as="sourcePoint"/>
                        <mxPoint x="1280" y="560.0000000000001" as="targetPoint"/>
                    </mxGeometry>
                </mxCell>
                <mxCell id="9RKFZUtvvwKJRX-urCKo-8" value="" style="endArrow=none;html=1;fontFamily=Lucida Console;fontColor=#FFFFFF;strokeWidth=3;fillColor=#fff2cc;strokeColor=#d6b656;" edge="1" parent="rkrr86saiVQCqNrHMcck-1">
                    <mxGeometry width="50" height="50" relative="1" as="geometry">
                        <mxPoint x="1420" y="1120" as="sourcePoint"/>
                        <mxPoint x="1420" y="560.0000000000001" as="targetPoint"/>
                    </mxGeometry>
                </mxCell>
                <mxCell id="9RKFZUtvvwKJRX-urCKo-9" value="" style="endArrow=none;html=1;fontFamily=Lucida Console;fontColor=#FFFFFF;strokeWidth=3;fillColor=#ffe6cc;strokeColor=#d79b00;" edge="1" parent="rkrr86saiVQCqNrHMcck-1">
                    <mxGeometry width="50" height="50" relative="1" as="geometry">
                        <mxPoint x="1560" y="1120" as="sourcePoint"/>
                        <mxPoint x="1560" y="560.0000000000001" as="targetPoint"/>
                    </mxGeometry>
                </mxCell>
                <mxCell id="9RKFZUtvvwKJRX-urCKo-10" value="" style="endArrow=none;html=1;fontFamily=Lucida Console;fontColor=#FFFFFF;strokeWidth=3;fillColor=#f8cecc;strokeColor=#b85450;" edge="1" parent="rkrr86saiVQCqNrHMcck-1">
                    <mxGeometry width="50" height="50" relative="1" as="geometry">
                        <mxPoint x="1700" y="1120" as="sourcePoint"/>
                        <mxPoint x="1700" y="560.0000000000001" as="targetPoint"/>
                    </mxGeometry>
                </mxCell>
                <mxCell id="9RKFZUtvvwKJRX-urCKo-11" value="" style="endArrow=none;html=1;fontFamily=Lucida Console;fontColor=#FFFFFF;strokeWidth=3;fillColor=#d5e8d4;strokeColor=#82b366;" edge="1" parent="rkrr86saiVQCqNrHMcck-1">
                    <mxGeometry width="50" height="50" relative="1" as="geometry">
                        <mxPoint x="1000" y="620" as="sourcePoint"/>
                        <mxPoint x="1120" y="620" as="targetPoint"/>
                    </mxGeometry>
                </mxCell>
                <mxCell id="9RKFZUtvvwKJRX-urCKo-12" value="" style="endArrow=none;html=1;fontFamily=Lucida Console;fontColor=#FFFFFF;strokeWidth=3;fillColor=#dae8fc;strokeColor=#6c8ebf;" edge="1" parent="rkrr86saiVQCqNrHMcck-1">
                    <mxGeometry width="50" height="50" relative="1" as="geometry">
                        <mxPoint x="1120" y="619.9999999999999" as="sourcePoint"/>
                        <mxPoint x="1260" y="620" as="targetPoint"/>
                    </mxGeometry>
                </mxCell>
                <mxCell id="9RKFZUtvvwKJRX-urCKo-13" value="" style="endArrow=none;html=1;fontFamily=Lucida Console;fontColor=#FFFFFF;strokeWidth=3;fillColor=#fff2cc;strokeColor=#d6b656;" edge="1" parent="rkrr86saiVQCqNrHMcck-1">
                    <mxGeometry width="50" height="50" relative="1" as="geometry">
                        <mxPoint x="1260" y="620" as="sourcePoint"/>
                        <mxPoint x="1440" y="620" as="targetPoint"/>
                    </mxGeometry>
                </mxCell>
                <mxCell id="9RKFZUtvvwKJRX-urCKo-14" value="" style="endArrow=none;html=1;fontFamily=Lucida Console;fontColor=#FFFFFF;strokeWidth=3;fillColor=#ffe6cc;strokeColor=#d79b00;" edge="1" parent="rkrr86saiVQCqNrHMcck-1">
                    <mxGeometry width="50" height="50" relative="1" as="geometry">
                        <mxPoint x="1440" y="620" as="sourcePoint"/>
                        <mxPoint x="1580" y="620" as="targetPoint"/>
                    </mxGeometry>
                </mxCell>
                <mxCell id="9RKFZUtvvwKJRX-urCKo-15" value="" style="endArrow=none;html=1;fontFamily=Lucida Console;fontColor=#FFFFFF;strokeWidth=3;fillColor=#f8cecc;strokeColor=#b85450;" edge="1" parent="rkrr86saiVQCqNrHMcck-1">
                    <mxGeometry width="50" height="50" relative="1" as="geometry">
                        <mxPoint x="1580" y="620" as="sourcePoint"/>
                        <mxPoint x="1700" y="620" as="targetPoint"/>
                    </mxGeometry>
                </mxCell>
                <mxCell id="9RKFZUtvvwKJRX-urCKo-16" value="" style="rounded=1;whiteSpace=wrap;html=1;fillColor=#B85450;strokeColor=#b85450;fontFamily=Lucida Console;fontColor=#FFFFFF;fontSize=8;" vertex="1" parent="rkrr86saiVQCqNrHMcck-1">
                    <mxGeometry x="1570" y="629" width="120" height="40" as="geometry"/>
                </mxCell>
                <mxCell id="9RKFZUtvvwKJRX-urCKo-17" value="Een betere werk plek vinden" style="rounded=1;whiteSpace=wrap;html=1;fillColor=#82B366;strokeColor=#82b366;fontFamily=Lucida Console;fontColor=#FFFFFF;fontSize=8;" vertex="1" parent="rkrr86saiVQCqNrHMcck-1">
                    <mxGeometry x="1010" y="629" width="120" height="40" as="geometry"/>
                </mxCell>
                <mxCell id="9RKFZUtvvwKJRX-urCKo-18" value="" style="rounded=1;whiteSpace=wrap;html=1;fillColor=#6C8EBF;strokeColor=#6c8ebf;fontFamily=Lucida Console;fontColor=#FFFFFF;fontSize=8;" vertex="1" parent="rkrr86saiVQCqNrHMcck-1">
                    <mxGeometry x="1150" y="629" width="120" height="40" as="geometry"/>
                </mxCell>
                <mxCell id="9RKFZUtvvwKJRX-urCKo-19" value="Sprint planning na sprint demo" style="rounded=1;whiteSpace=wrap;html=1;fillColor=#D6B656;strokeColor=#D6B656;fontFamily=Lucida Console;fontColor=#FFFFFF;fontSize=8;" vertex="1" parent="rkrr86saiVQCqNrHMcck-1">
                    <mxGeometry x="1290" y="629" width="120" height="40" as="geometry"/>
                </mxCell>
                <mxCell id="9RKFZUtvvwKJRX-urCKo-20" value="Ziek zijn" style="rounded=1;whiteSpace=wrap;html=1;fillColor=#D79B00;strokeColor=#d79b00;fontFamily=Lucida Console;fontColor=#FFFFFF;fontSize=8;" vertex="1" parent="rkrr86saiVQCqNrHMcck-1">
                    <mxGeometry x="1430" y="629" width="120" height="40" as="geometry"/>
                </mxCell>
                <mxCell id="v0dEWzMb2Dfjbbjnk-Ay-0" value="Pair programming tijdens taken" style="rounded=1;whiteSpace=wrap;html=1;fillColor=#D6B656;strokeColor=#D6B656;fontFamily=Lucida Console;fontColor=#FFFFFF;fontSize=8;" vertex="1" parent="rkrr86saiVQCqNrHMcck-1">
                    <mxGeometry x="1290" y="680" width="120" height="40" as="geometry"/>
                </mxCell>
                <mxCell id="v0dEWzMb2Dfjbbjnk-Ay-1" value="Snelheid van ontwikkeling" style="rounded=1;whiteSpace=wrap;html=1;fillColor=#D6B656;strokeColor=#D6B656;fontFamily=Lucida Console;fontColor=#FFFFFF;fontSize=8;" vertex="1" parent="rkrr86saiVQCqNrHMcck-1">
                    <mxGeometry x="1290" y="730" width="120" height="40" as="geometry"/>
                </mxCell>
            </root>
        </mxGraphModel>
    </diagram>
</mxfile>